<svg xmlns="http://www.w3.org/2000/svg" viewBox="0 0 97.29 48.18"><defs><style>.cls-1{fill:#c5c6c6;fill-rule:evenodd;}</style></defs><g id="Layer_2" data-name="Layer 2"><g id="Layer_1-2" data-name="Layer 1"><path class="cls-1" d="M18.74,0H92.85a4.32,4.32,0,0,1,3.63,1.89A4.33,4.33,0,0,1,97,6L82.72,45.26a4.37,4.37,0,0,1-4.17,2.92H4.45A4.29,4.29,0,0,1,.82,46.29a4.3,4.3,0,0,1-.54-4.06L14.58,2.92A4.35,4.35,0,0,1,18.74,0ZM38.06,35.63H27.35l2-10.56H40.09l1-5.08H30.36l1.4-7.28h15l1-4.85H26.43L20.17,40.4h21l1-4.77Zm29.67-8.21-11-19.64H53.58L47.16,40.4h6.11L56.94,20,68.55,40.4h2.78L77.12,7.78h-6Z"/></g></g></svg>