<svg xmlns="http://www.w3.org/2000/svg" viewBox="0 0 120.58 55.25"><defs><style>.cls-1{fill:#c5c6c6;fill-rule:evenodd;}</style></defs><g id="Layer_2" data-name="Layer 2"><g id="Layer_1-2" data-name="Layer 1"><polygon class="cls-1" points="0.13 31.28 120.38 31.25 120.45 29.64 0.16 29.56 0.13 31.28"/><path class="cls-1" d="M20,27.05l7.34,0c.55-4.43.09-12.09.09-16.89C27.41,2.78,27.79.5,20,0Z"/><path class="cls-1" d="M81.85,27H89.2l.13-1.43,0-18.49c0-5.82-1.94-6.78-7.48-7.07Z"/><path class="cls-1" d="M62.06,26.93l7.32.08L69.46.1C62-.19,62,3.29,62,9.82,62,14.63,61.55,22.5,62.06,26.93Z"/><path class="cls-1" d="M.22,26.93,7.5,27,7.58.11C.08-.32.17,3.38.17,9.82.17,14.92-.25,22.09.22,26.93Z"/><path class="cls-1" d="M120.48,26.87l.06-6.66c-1.51-.48-24.69-.37-27.73-.17.81,7.13,3.33,7,10.31,6.94C106.81,27,117.63,27.46,120.48,26.87Z"/><path class="cls-1" d="M31.13,7.15l27.74,0v-7c-5.67-.15-11.56,0-17.27,0C34.85.05,31.61-.07,31.13,7.15Z"/><path class="cls-1" d="M92.86,7.06l27.72.06V0c-5.72.19-11.7,0-17.46,0C96.74.05,93,0,92.86,7.06Z"/><path class="cls-1" d="M31.19,26.85c2.41.56,13.75.14,17.07.14,7.07,0,9.87.38,10.64-7L31.28,20Z"/><path class="cls-1" d="M58.64,17.68c.08-5.39-4.5-7.51-9.77-7.42-5.72.1-11.82.06-17.55-.08A5.94,5.94,0,0,0,34,15.93c2.82,2,3.1,1.59,7,1.61C46.84,17.58,52.8,17.44,58.64,17.68Z"/><path class="cls-1" d="M10.07,5l0,18.65,7.36,0c.41-6-.09-16.61.11-23.43L10.05.05Z"/><polygon class="cls-1" points="71.95 23.6 79.3 23.62 79.39 0.14 71.92 0.05 71.95 23.6"/><polygon class="cls-1" points="92.89 17.88 113.75 17.93 113.86 10.35 92.85 10.37 92.89 17.88"/><path class="cls-1" d="M2,54.1V49H3.25L4,52.48,4.77,49H6V54.1H5.25v-4l-.83,4H3.61l-.84-4v4Zm4.88,0V49H7.7V54.1Zm4.34-1.89.83.32a2.35,2.35,0,0,1-.64,1.26,1.59,1.59,0,0,1-1.1.4A1.63,1.63,0,0,1,9,53.56a3.08,3.08,0,0,1-.59-2A3.26,3.26,0,0,1,9,49.53a1.69,1.69,0,0,1,1.38-.64,1.58,1.58,0,0,1,1.18.48,2,2,0,0,1,.5,1l-.84.25a1.11,1.11,0,0,0-.32-.64.79.79,0,0,0-.56-.22.89.89,0,0,0-.76.4,2.31,2.31,0,0,0-.3,1.34,2.47,2.47,0,0,0,.29,1.37.86.86,0,0,0,.74.41.77.77,0,0,0,.58-.26,1.56,1.56,0,0,0,.35-.83Zm1.56,1.89V49h1.78a2.32,2.32,0,0,1,1,.14,1.1,1.1,0,0,1,.49.47,1.74,1.74,0,0,1,.18.82,1.55,1.55,0,0,1-.28,1,1.32,1.32,0,0,1-.82.46,2.06,2.06,0,0,1,.45.43,5.27,5.27,0,0,1,.48.83l.52,1h-1L14.91,53a7.41,7.41,0,0,0-.45-.76A.71.71,0,0,0,14.2,52a1.06,1.06,0,0,0-.42-.06H13.6V54.1Zm.84-3h.63a3.47,3.47,0,0,0,.74,0,.51.51,0,0,0,.25-.21.71.71,0,0,0,.1-.41.67.67,0,0,0-.1-.39.49.49,0,0,0-.26-.21,3.83,3.83,0,0,0-.69,0H13.6v1.31Zm3.22.42a3.68,3.68,0,0,1,.27-1.51,2.05,2.05,0,0,1,.71-.88,1.91,1.91,0,0,1,1.06-.29,1.82,1.82,0,0,1,1.47.69,3,3,0,0,1,.57,2,3.05,3.05,0,0,1-.6,2,1.77,1.77,0,0,1-1.44.64,1.79,1.79,0,0,1-1.44-.63,3,3,0,0,1-.6-2Zm.88,0A2.17,2.17,0,0,0,18,52.86a1,1,0,0,0,.83.44,1,1,0,0,0,.83-.44A2.22,2.22,0,0,0,20,51.52a2.18,2.18,0,0,0-.32-1.32,1,1,0,0,0-1.68,0,2.24,2.24,0,0,0-.32,1.33Zm3.83,1.58h.8v.71a2.17,2.17,0,0,1-.14.88,1.08,1.08,0,0,1-.57.54l-.16-.41a.66.66,0,0,0,.34-.26.9.9,0,0,0,.11-.48h-.38v-1Zm3.08-.68.83-.1c.09.65.4,1,.92,1a.87.87,0,0,0,.6-.2.65.65,0,0,0,.22-.5.56.56,0,0,0-.07-.3.54.54,0,0,0-.24-.2,6.4,6.4,0,0,0-.76-.26,2.63,2.63,0,0,1-.8-.36,1.53,1.53,0,0,1-.4-.5,1.57,1.57,0,0,1-.15-.68,1.45,1.45,0,0,1,.2-.75,1.28,1.28,0,0,1,.52-.51,1.89,1.89,0,0,1,.83-.17,1.57,1.57,0,0,1,1.16.4,1.59,1.59,0,0,1,.44,1.16l-.85,0a.9.9,0,0,0-.24-.58.82.82,0,0,0-.53-.16.88.88,0,0,0-.53.14.45.45,0,0,0-.19.35.44.44,0,0,0,.17.35,2.57,2.57,0,0,0,.78.32,3.17,3.17,0,0,1,.92.39,1.34,1.34,0,0,1,.44.53,1.87,1.87,0,0,1,.15.78,1.61,1.61,0,0,1-.41,1.12,1.64,1.64,0,0,1-1.29.46c-1,0-1.6-.59-1.72-1.75Zm4.12,1.66V49H30l.76,3.5.75-3.5h1.28V54.1H32v-4l-.83,4h-.81l-.84-4v4Zm8.69,0H36.5l-.35-1.16H34.46l-.35,1.16h-.9L34.84,49h.9l1.68,5.12Zm-1.55-2-.58-1.91-.57,1.91Zm2,2V49h.84v4.22h2.11v.86Zm3.58,0V49h.85v4.22h2.11v.86Zm8.82-.62-.48.76a2.86,2.86,0,0,1-.69-.59,1.68,1.68,0,0,1-.55.41,1.6,1.6,0,0,1-.67.13,1.35,1.35,0,0,1-1.13-.46,1.64,1.64,0,0,1-.36-1,1.76,1.76,0,0,1,1-1.56A2,2,0,0,1,46.93,50a1.08,1.08,0,0,1,.32-.8,1.2,1.2,0,0,1,1.86,1.47,2.31,2.31,0,0,1-.61.61l.59.94a4.1,4.1,0,0,0,.18-.58l.72.2a3.63,3.63,0,0,1-.36,1.06,3.89,3.89,0,0,0,.35.33,2.54,2.54,0,0,0,.31.25ZM48.1,50.7l.22-.21a.63.63,0,0,0,.24-.44.49.49,0,0,0-.12-.34.43.43,0,0,0-.31-.12.4.4,0,0,0-.3.11.37.37,0,0,0-.11.27.82.82,0,0,0,.18.44l.2.29Zm-.32,1.06a1.21,1.21,0,0,0-.41.4,1,1,0,0,0-.14.5.76.76,0,0,0,.18.53.57.57,0,0,0,.45.19,1.1,1.1,0,0,0,.75-.39l-.83-1.23Zm4.65,2.34V49H53.7l.76,3.5.76-3.5h1.27V54.1h-.78v-4l-.84,4h-.81l-.84-4v4Zm4.91,0V49h3.11v.86H58.18V51H60.3v.87H58.18v1.4h2.35v.86ZM61.25,49H62.8a2.23,2.23,0,0,1,.88.13,1.49,1.49,0,0,1,.55.44,2.36,2.36,0,0,1,.4.81,4.73,4.73,0,0,1,.14,1.23,4,4,0,0,1-.15,1.16,2.36,2.36,0,0,1-.38.78,1.48,1.48,0,0,1-.56.43,2.23,2.23,0,0,1-.84.14H61.25V49Zm.84.86v3.4h.64a1.66,1.66,0,0,0,.59-.08.72.72,0,0,0,.31-.23,1.56,1.56,0,0,0,.19-.49,5,5,0,0,0,0-1.79,1.16,1.16,0,0,0-.25-.51.74.74,0,0,0-.4-.25,3.3,3.3,0,0,0-.69,0Zm3.37,4.26V49h.85V54.1ZM67.12,49H68v2.77a5,5,0,0,0,0,.84.84.84,0,0,0,.26.53.86.86,0,0,0,.57.18.82.82,0,0,0,.48-.13.66.66,0,0,0,.25-.36,4.22,4.22,0,0,0,.07-1V49h.85v2.69a7.36,7.36,0,0,1-.11,1.49,1.27,1.27,0,0,1-.5.74,1.69,1.69,0,0,1-1,.29,1.89,1.89,0,0,1-1-.24,1.27,1.27,0,0,1-.54-.66,5.1,5.1,0,0,1-.16-1.58V49Zm4.23,5.12V49h1.26l.77,3.5.75-3.5h1.28V54.1h-.79v-4l-.84,4H73l-.83-4v4Zm6.54,0V49H81v.86H78.73V51h2.11v.87H78.73v1.4h2.35v.86Zm3.93,0V49h.82l1.73,3.42V49h.78V54.1H84.3l-1.7-3.34V54.1Zm5.16,0V49.84H85.74V49h3.34v.86H87.83V54.1Zm2.65,0V49h3.11v.86H90.47V51h2.11v.87H90.47v1.4h2.35v.86Zm3.91,0V49h1.79a2.35,2.35,0,0,1,1,.14,1.14,1.14,0,0,1,.48.47,1.63,1.63,0,0,1,.19.82,1.55,1.55,0,0,1-.29,1,1.29,1.29,0,0,1-.82.46,2.06,2.06,0,0,1,.45.43,6,6,0,0,1,.49.83l.51,1h-1L95.69,53a7.41,7.41,0,0,0-.45-.76A.68.68,0,0,0,95,52a1.12,1.12,0,0,0-.43-.06h-.17V54.1Zm.85-3H95a3.35,3.35,0,0,0,.73,0,.53.53,0,0,0,.26-.21.8.8,0,0,0,.1-.41.75.75,0,0,0-.1-.39.56.56,0,0,0-.27-.21,3.83,3.83,0,0,0-.69,0h-.66v1.31Zm3.39,3V49h1.36a4.22,4.22,0,0,1,1,.07,1.13,1.13,0,0,1,.62.51,2.18,2.18,0,0,1,0,1.93,1.21,1.21,0,0,1-.52.53,2.8,2.8,0,0,1-1.09.15h-.56V54.1Zm.84-4.26V51.3h.48a2.24,2.24,0,0,0,.64-.06A.65.65,0,0,0,100,51a.9.9,0,0,0,0-.86.58.58,0,0,0-.28-.24,2.52,2.52,0,0,0-.7-.06Zm3.07,4.26V49h1.79a2.35,2.35,0,0,1,1,.14,1,1,0,0,1,.48.47,1.63,1.63,0,0,1,.19.82,1.55,1.55,0,0,1-.29,1,1.27,1.27,0,0,1-.82.46,1.85,1.85,0,0,1,.45.43,5.12,5.12,0,0,1,.49.83l.52,1h-1L103.84,53a7.41,7.41,0,0,0-.45-.76.68.68,0,0,0-.25-.21,1.12,1.12,0,0,0-.43-.06h-.17V54.1Zm.85-3h.63a3.29,3.29,0,0,0,.73,0,.53.53,0,0,0,.26-.21.71.71,0,0,0,.1-.41.67.67,0,0,0-.1-.39.51.51,0,0,0-.27-.21,3.74,3.74,0,0,0-.69,0h-.66v1.31Zm3.36,3V49h.85V54.1Zm1.45-1.66.82-.1c.1.65.4,1,.92,1a.9.9,0,0,0,.61-.2.65.65,0,0,0,.22-.5.56.56,0,0,0-.08-.3.57.57,0,0,0-.23-.2,6.84,6.84,0,0,0-.77-.26,2.56,2.56,0,0,1-.79-.36,1.41,1.41,0,0,1-.4-.5,1.57,1.57,0,0,1-.15-.68,1.44,1.44,0,0,1,.19-.75,1.3,1.3,0,0,1,.53-.51,1.86,1.86,0,0,1,.83-.17,1.6,1.6,0,0,1,1.16.4,1.63,1.63,0,0,1,.44,1.16l-.85,0a1,1,0,0,0-.24-.58.84.84,0,0,0-.53-.16.88.88,0,0,0-.53.14.42.42,0,0,0-.19.35.44.44,0,0,0,.17.35,2.36,2.36,0,0,0,.77.32,3.26,3.26,0,0,1,.93.39,1.31,1.31,0,0,1,.43.53,1.87,1.87,0,0,1,.16.78,1.57,1.57,0,0,1-.42,1.12,1.61,1.61,0,0,1-1.28.46c-1,0-1.6-.59-1.72-1.75Zm4.13,1.66V49h3.11v.86h-2.27V51h2.12v.87h-2.12v1.4h2.35v.86Zm3.7-1.66.82-.1c.1.65.4,1,.92,1a.9.9,0,0,0,.61-.2.65.65,0,0,0,.22-.5.56.56,0,0,0-.08-.3.57.57,0,0,0-.23-.2,6.84,6.84,0,0,0-.77-.26,2.56,2.56,0,0,1-.79-.36,1.41,1.41,0,0,1-.4-.5,1.57,1.57,0,0,1-.15-.68,1.44,1.44,0,0,1,.19-.75,1.3,1.3,0,0,1,.53-.51,1.86,1.86,0,0,1,.83-.17,1.6,1.6,0,0,1,1.16.4,1.63,1.63,0,0,1,.44,1.16l-.85,0a1,1,0,0,0-.24-.58.84.84,0,0,0-.53-.16.88.88,0,0,0-.53.14.42.42,0,0,0-.19.35.44.44,0,0,0,.17.35,2.36,2.36,0,0,0,.77.32,3.26,3.26,0,0,1,.93.39,1.42,1.42,0,0,1,.44.53,1.87,1.87,0,0,1,.15.78,1.61,1.61,0,0,1-.41,1.12,1.65,1.65,0,0,1-1.29.46C115.87,54.19,115.3,53.6,115.18,52.44Z"/><path class="cls-1" d="M86.3,40.28V39.5h1.48V36.07H86.3v-.79h3.49v.79H88.66V43.3h-.88v-3Zm14.26-4.21H98.81a3.51,3.51,0,0,1,.24.61,2.49,2.49,0,0,1,.08.61,2.07,2.07,0,0,1-.06.5,2.2,2.2,0,0,1-.19.47,2,2,0,0,1-.31.41,2,2,0,0,1-.44.31v0a2.53,2.53,0,0,1,.89.86,2.41,2.41,0,0,1,.33,1.28,2.7,2.7,0,0,1-.13.85,2,2,0,0,1-.4.73,1.86,1.86,0,0,1-.69.5,2.43,2.43,0,0,1-1,.2A2.94,2.94,0,0,1,96,43.2a3.42,3.42,0,0,1-.94-.6,4.3,4.3,0,0,1-.73-.85,6.24,6.24,0,0,1-.54-1,7.1,7.1,0,0,1-.36-1,6.34,6.34,0,0,1-.21-.9l.71-.32a6.91,6.91,0,0,0,.22.93,7.45,7.45,0,0,0,.36.93,5.51,5.51,0,0,0,.49.85,3.74,3.74,0,0,0,.6.7,2.7,2.7,0,0,0,.71.48,1.91,1.91,0,0,0,.82.17,1.79,1.79,0,0,0,.51-.07A1.22,1.22,0,0,0,98,42.3a1.35,1.35,0,0,0,.32-.47,1.87,1.87,0,0,0,.12-.72,1.6,1.6,0,0,0-.5-1.29,2.22,2.22,0,0,0-1.47-.43h-.44v-.82h.34a3.13,3.13,0,0,0,.86-.1,1.47,1.47,0,0,0,.57-.3,1.24,1.24,0,0,0,.33-.44,1.42,1.42,0,0,0,.1-.55,1.72,1.72,0,0,0-.1-.6,2.31,2.31,0,0,0-.28-.54H92.43v-.79h8.13ZM86.3,35.28v.79H84.83V39.5H86.3v.78H84.83v.64a2.66,2.66,0,0,1,0,.3.65.65,0,0,1-.06.21.27.27,0,0,1-.13.13.45.45,0,0,1-.22,0,.79.79,0,0,1-.31-.08,2.33,2.33,0,0,1-.35-.23,3.39,3.39,0,0,1-.35-.32,3.35,3.35,0,0,1-.51-.77,1,1,0,0,1-.08-.35.49.49,0,0,1,0-.19.32.32,0,0,1,.12-.11.69.69,0,0,1,.17-.05h.81V36.07H82.38v-.79H86.3ZM77,41v-.11a2.19,2.19,0,0,0,.41.26,2.32,2.32,0,0,0,1.07.23,2.88,2.88,0,0,0,.59-.06c.19,0,.37-.09.53-.14A2.35,2.35,0,0,0,80,41a2.66,2.66,0,0,0,.35-.23h0V43.3h.88V36.07H82v-.79H77v1.21a2.14,2.14,0,0,1,.16.39,1.65,1.65,0,0,1,.08.34,1.69,1.69,0,0,1,0,.3,1.08,1.08,0,0,1-.08.38,1,1,0,0,1-.19.32v1a1.69,1.69,0,0,0,.46-.25,1.7,1.7,0,0,0,.59-.88,1.89,1.89,0,0,0,.08-.53,3,3,0,0,0-.11-.77,3.33,3.33,0,0,0-.31-.72h2.71v3.6a2.22,2.22,0,0,1-.37.38,2.16,2.16,0,0,1-.45.29,2.3,2.3,0,0,1-1.07.25,1.86,1.86,0,0,1-.54-.07,1.26,1.26,0,0,1-.46-.24,1.48,1.48,0,0,1-.36-.42,2.4,2.4,0,0,1-.17-.39v1.18L77,41Zm0-5.76v1.21h0a2.25,2.25,0,0,0-.24-.42h-.33v-.79Zm0,2.94v1l-.06,0,.06.22v1.18l-.14-.7a3.39,3.39,0,0,1-.38.53l-.05.05v1l.12-.09A3.69,3.69,0,0,0,77,41v-.11a2.65,2.65,0,0,1-.33-.34,2.71,2.71,0,0,1-.24-.35V38.59l.13-.05a1.41,1.41,0,0,0,.41-.28Zm-.57-2.94v.79h-.63v-.79Zm0,3.31v1.65a2.73,2.73,0,0,1-.23-.52,4.82,4.82,0,0,1-.25-1,2.8,2.8,0,0,0,.48-.12Zm0,1.94a2.25,2.25,0,0,1-.4.36,2,2,0,0,1-.52.27,1.91,1.91,0,0,1-.58.1,1.21,1.21,0,0,1-.82-.28,1,1,0,0,1-.3-.75,1.06,1.06,0,0,1,.09-.45,1.13,1.13,0,0,1,.23-.34,1.83,1.83,0,0,1,.31-.24l.35-.16.31-.09.23,0-.14-.83a2.45,2.45,0,0,1-.36.08,2.06,2.06,0,0,1-.44,0,1.51,1.51,0,0,1-.6-.1,1.15,1.15,0,0,1-.42-.28,1,1,0,0,1-.24-.41,1.57,1.57,0,0,1-.08-.49,1.09,1.09,0,0,1,.07-.42.9.9,0,0,1,.16-.29.6.6,0,0,1,.23-.16.74.74,0,0,1,.25,0,.57.57,0,0,1,.22,0,.5.5,0,0,1,.19.1.59.59,0,0,1,.13.18.57.57,0,0,1,.06.27.84.84,0,0,1,0,.29,1.5,1.5,0,0,1-.11.22l.7.42.11-.19c0-.07.07-.15.1-.23a2.29,2.29,0,0,0,.08-.28,1.43,1.43,0,0,0,0-.29,1.28,1.28,0,0,0-.08-.46,1.22,1.22,0,0,0-.25-.44,1.18,1.18,0,0,0-.43-.32,1.41,1.41,0,0,0-.64-.13,1.55,1.55,0,0,0-1.16.49,1.64,1.64,0,0,0-.34.55,1.92,1.92,0,0,0-.12.69,2.49,2.49,0,0,0,.08.61,1.93,1.93,0,0,0,.27.56,1.6,1.6,0,0,0,.44.46,1.84,1.84,0,0,0,.63.3v0a1.7,1.7,0,0,0-.52.61,1.83,1.83,0,0,0-.14.71,2.15,2.15,0,0,0,.14.77,1.81,1.81,0,0,0,.42.6,2.23,2.23,0,0,0,.63.39,2.26,2.26,0,0,0,.79.14,2.48,2.48,0,0,0,.54-.06,2.25,2.25,0,0,0,.53-.19,2.65,2.65,0,0,0,.42-.26v-1Zm-8.15-.25V39.5H69.7V36.07H68.23v-.79h3.48v.79H70.58V43.3H69.7v-3Zm0-5v.79H66.75V39.5h1.48v.78H66.75v.64a2.66,2.66,0,0,1,0,.3.47.47,0,0,1-.06.21.3.3,0,0,1-.12.13.49.49,0,0,1-.23,0,.83.83,0,0,1-.31-.08,3,3,0,0,1-.35-.23,2.54,2.54,0,0,1-.34-.32,3.57,3.57,0,0,1-.3-.38,1.86,1.86,0,0,1-.21-.39.8.8,0,0,1-.08-.35.36.36,0,0,1,0-.19.23.23,0,0,1,.11-.11l.17-.05h.82V36.07h-2v-.79ZM57.75,42v-.82a1.49,1.49,0,0,0,.56-.14,1.77,1.77,0,0,0,.53-.36,1.8,1.8,0,0,0,.34-.49,1.36,1.36,0,0,0,.12-.54V39a3.25,3.25,0,0,0-.74-.66,1.71,1.71,0,0,0-.81-.25v-.8h.15a2.63,2.63,0,0,1,.43.1,2.13,2.13,0,0,1,.46.22,1.79,1.79,0,0,1,.46.38h0v-1.9H57.75v-.79h3.54v.79H60.16V43.3h-.88V41.38h0l-.25.22a1.3,1.3,0,0,1-.33.19,2.6,2.6,0,0,1-.42.15,2,2,0,0,1-.5.06Zm1.31-8.35a.65.65,0,0,1,.18-.49.6.6,0,0,1,.47-.19A.7.7,0,0,1,60,33a.8.8,0,0,1,.21.15.71.71,0,0,1,.15.22.82.82,0,0,1,0,.28.69.69,0,0,1-.18.49.61.61,0,0,1-.47.19.71.71,0,0,1-.26-.05.8.8,0,0,1-.21-.15.55.55,0,0,1-.14-.22A.61.61,0,0,1,59.06,33.64Zm-1.31,1.64v.79H54.82v-.79h2.93Zm0,2v.8h-.09a1.36,1.36,0,0,0-.67.15,1.44,1.44,0,0,0-.46.38,1.54,1.54,0,0,0-.26.51,2.14,2.14,0,0,0-.08.54,1.76,1.76,0,0,0,.09.55,1.93,1.93,0,0,0,.27.49A1.43,1.43,0,0,0,57,41a1.39,1.39,0,0,0,.63.13h.12V42h0A2.25,2.25,0,0,1,56,41.24a2.45,2.45,0,0,1-.49-.78,2.48,2.48,0,0,1-.18-.93,2.26,2.26,0,0,1,.18-.9,2,2,0,0,1,.48-.72,2,2,0,0,1,.71-.48,2.16,2.16,0,0,1,.88-.18ZM41.67,45.61v-1l.26.18a2.23,2.23,0,0,0,.65.29,2.67,2.67,0,0,0,.78.11,2.25,2.25,0,0,0,.63-.08,1.32,1.32,0,0,0,.43-.18.76.76,0,0,0,.24-.27.67.67,0,0,0,.08-.3.52.52,0,0,0-.21-.43.87.87,0,0,0-.56-.16,1.84,1.84,0,0,0-.53.08,2.09,2.09,0,0,0-.62.27l-.36-.7a3.09,3.09,0,0,1,.76-.34A3.26,3.26,0,0,1,44,43a2,2,0,0,1,.61.09,1.42,1.42,0,0,1,.5.27,1.55,1.55,0,0,1,.32.44,1.4,1.4,0,0,1,.12.58,1.44,1.44,0,0,1-.14.65,1.35,1.35,0,0,1-.41.52,2,2,0,0,1-.67.36,3,3,0,0,1-.94.13,3.38,3.38,0,0,1-1.09-.16,4.12,4.12,0,0,1-.64-.28Zm0-3.53a2.32,2.32,0,0,0,.93-.2,2.73,2.73,0,0,0,.89-.66h0V43.3h.88V36.07h1.13v-.79H41.67v.79h1.84v3.85a3.63,3.63,0,0,1-.27.42,2.82,2.82,0,0,1-.41.44,2.47,2.47,0,0,1-.54.34,1.76,1.76,0,0,1-.62.14v.82Zm0-3.16v-.85l.2,0,.15.82-.23,0-.12,0Zm11.14-2.85H50.25v3.85a2.08,2.08,0,0,0,.1.66,1.42,1.42,0,0,0,.32.46,3,3,0,0,0,.57.38l.84.44.85.43a4.84,4.84,0,0,1,.69.44,2.08,2.08,0,0,1,.45.5,1.09,1.09,0,0,1,.17.62,1.39,1.39,0,0,1-.11.52,1.7,1.7,0,0,1-.31.51l-.72-.44.15-.27a.66.66,0,0,0,.07-.3.64.64,0,0,0-.14-.39,1.63,1.63,0,0,0-.38-.35c-.16-.11-.34-.21-.54-.32l-.64-.31c-.38-.19-.71-.35-1-.5a3.26,3.26,0,0,1-.71-.48,1.85,1.85,0,0,1-.42-.61,2.4,2.4,0,0,1-.14-.87v-4H48.16v-.79h6.28v.79h-.75v3.41a1.71,1.71,0,0,1-.12.69,1.12,1.12,0,0,1-.29.42,1,1,0,0,1-.4.22,1.64,1.64,0,0,1-.42.06,1.9,1.9,0,0,1-.41,0,2.29,2.29,0,0,1-.37-.12v-.88A1,1,0,0,0,52,40a1,1,0,0,0,.34,0,.6.6,0,0,0,.26,0,.46.46,0,0,0,.15-.16.67.67,0,0,0,.07-.27,3.53,3.53,0,0,0,0-.36Zm-11.14-.79v.79H40.14a1.37,1.37,0,0,0-.23.45,1.69,1.69,0,0,0-.07.48,1.08,1.08,0,0,0,.08.44,1,1,0,0,0,.24.37,1.08,1.08,0,0,0,.39.24,1.44,1.44,0,0,0,.53.09,2.12,2.12,0,0,0,.44,0l.15,0v.85l-.2.07a3.4,3.4,0,0,0-.34.16,1.26,1.26,0,0,0-.31.25,1,1,0,0,0-.23.34,1.08,1.08,0,0,0-.09.46,1.23,1.23,0,0,0,.08.44,1,1,0,0,0,.24.33.93.93,0,0,0,.35.21,1.34,1.34,0,0,0,.46.08h0v.82h0a2.16,2.16,0,0,1-.81-.15,1.9,1.9,0,0,1-.64-.39,1.85,1.85,0,0,1-.42-.61,2,2,0,0,1-.16-.79,1.79,1.79,0,0,1,.15-.72,1.64,1.64,0,0,1,.52-.62v0a2,2,0,0,1-.56-.25,2,2,0,0,1-.42-.39,1.62,1.62,0,0,1-.25-.51,1.77,1.77,0,0,1-.09-.56,2.35,2.35,0,0,1,.06-.51,1.67,1.67,0,0,1,.19-.49h-.77v-.79h3.21Zm0,9.37v1l-.22-.13a4.1,4.1,0,0,1-.67-.55c-.2-.21-.37-.39-.51-.57l.5-.59c.2.22.4.42.58.6Zm-20-4.37V39.5h1.48V36.07H21.7v-.79h3.49v.79H24.06V43.3h-.88v-3Zm5,1.79-.86,2.65h-.63l.63-2.65Zm11.57-6h-.94V43.3h-.88v-5a1.58,1.58,0,0,0-.54-.11,1,1,0,0,0-.44.1.87.87,0,0,0-.32.25,1.37,1.37,0,0,0-.19.36,1.61,1.61,0,0,0-.06.44,1.15,1.15,0,0,0,0,.19,1.37,1.37,0,0,0,0,.19H34.1c0-.21-.06-.41-.1-.6a1.73,1.73,0,0,0-.16-.5.93.93,0,0,0-.27-.34.65.65,0,0,0-.43-.13.94.94,0,0,0-.43.1.92.92,0,0,0-.3.29,1.11,1.11,0,0,0-.17.43,2.2,2.2,0,0,0-.06.53,2.72,2.72,0,0,0,.21,1.09,3,3,0,0,0,.57.88,4,4,0,0,0,.82.69,8.78,8.78,0,0,0,1,.55l-.44.75-.5-.26c-.2-.12-.41-.26-.64-.43a6,6,0,0,1-.69-.59,4.66,4.66,0,0,1-.62-.76,4.14,4.14,0,0,1-.45-.92,3.51,3.51,0,0,1-.17-1.09,2.55,2.55,0,0,1,.13-.84,2.12,2.12,0,0,1,.37-.68,1.71,1.71,0,0,1,.58-.45,1.65,1.65,0,0,1,.75-.16,1.46,1.46,0,0,1,.54.08,1.49,1.49,0,0,1,.39.23,1.19,1.19,0,0,1,.27.28l.19.29h0a1.32,1.32,0,0,1,.25-.38,1.22,1.22,0,0,1,.31-.25,1.54,1.54,0,0,1,.35-.15,2.58,2.58,0,0,1,.38,0l.33,0,.32.08V36.07H30.22v-.79h7.86v.79ZM21.7,35.28v.79H20.23V39.5H21.7v.78H20.23v.64a2.66,2.66,0,0,1,0,.3.65.65,0,0,1-.06.21.27.27,0,0,1-.13.13.42.42,0,0,1-.22,0,.79.79,0,0,1-.31-.08,2.33,2.33,0,0,1-.35-.23A2.54,2.54,0,0,1,18.8,41a2.63,2.63,0,0,1-.3-.38h0V39.52h.85V36.07h-.85v-.79Zm-3.21,3.58a8,8,0,0,0,1.09-.34v-.87a9.49,9.49,0,0,1-1.09.38Zm0-3.58v.79H17.4v-.79Zm0,2.75-.2,0a4.57,4.57,0,0,1-1.21.16l-.41,0-.41-.06v0l.33-.27a1.86,1.86,0,0,0,.26-.31,1.53,1.53,0,0,0,.16-.37,1.7,1.7,0,0,0-.07-1.1,1.64,1.64,0,0,0-.34-.5,1.93,1.93,0,0,0-.49-.31,1.56,1.56,0,0,0-.57-.1h0V36h0a.6.6,0,0,1,.27.06.54.54,0,0,1,.22.15.63.63,0,0,1,.14.24.73.73,0,0,1,.06.3.79.79,0,0,1-.06.32.92.92,0,0,1-.16.27,1,1,0,0,1-.23.24l-.24.18v1a6.41,6.41,0,0,0,.73.17,5.14,5.14,0,0,0,.88.07,6.44,6.44,0,0,0,1.36-.15V38Zm0,1.49v1.07a2.32,2.32,0,0,1-.2-.38.8.8,0,0,1-.08-.35.36.36,0,0,1,0-.19.23.23,0,0,1,.11-.11l.13,0Zm-3,3.28h.2l.41,0a1.46,1.46,0,0,0,.4-.1,2.07,2.07,0,0,1,.13.26c.05.1.11.22.19.36s.18.27.29.42a3.05,3.05,0,0,0,.43.46l.66-.69L18,43.26a1.55,1.55,0,0,1-.25-.26,2,2,0,0,1-.23-.32,3.14,3.14,0,0,1-.22-.41l.25-.25a3,3,0,0,0,.2-.29,1.35,1.35,0,0,0,.14-.35,1.21,1.21,0,0,0,.06-.38,1.14,1.14,0,0,0-.05-.33.82.82,0,0,0-.14-.28.67.67,0,0,0-.22-.19.66.66,0,0,0-.32-.07.71.71,0,0,0-.41.12,1,1,0,0,0-.3.31,1.84,1.84,0,0,0-.17.43,2,2,0,0,0-.06.49,1.49,1.49,0,0,0,0,.21.76.76,0,0,0,0,.21A1.12,1.12,0,0,1,16,42l-.35,0h-.15Zm0-7.62V36a.93.93,0,0,0-.22,0,.57.57,0,0,0-.23.12.74.74,0,0,0-.17.24,1,1,0,0,0-.06.37,1.06,1.06,0,0,0,.15.58,1.47,1.47,0,0,0,.48.44l0,0v1l-.12,0a4.7,4.7,0,0,0-.44.34,2.11,2.11,0,0,0-.39.4,2.22,2.22,0,0,0-.28.5,1.7,1.7,0,0,0-.1.61,2.47,2.47,0,0,0,.05.44,1.27,1.27,0,0,0,.21.46,1.11,1.11,0,0,0,.45.36,1.53,1.53,0,0,0,.62.15v.81a2.47,2.47,0,0,1-.77-.17,2.18,2.18,0,0,1-.73-.45V38.83a2.09,2.09,0,0,1,.22-.2,5.74,5.74,0,0,1,.5-.36v0a2.19,2.19,0,0,1-.58-.7,2,2,0,0,1-.14-.41V36.4a2.29,2.29,0,0,1,.09-.28,1.64,1.64,0,0,1,.34-.5,1.67,1.67,0,0,1,.5-.33,1.56,1.56,0,0,1,.57-.11ZM14,46.05V44.66a5.64,5.64,0,0,1,.39.55l.29.49ZM12.94,35.28v.79H11.82V43.3h-.9V39.69H9.49v-.78h1.43V36.07H9.49v-.79ZM9.49,42.62V43l.19-.21-.19-.15ZM14,36.4v.74a2.3,2.3,0,0,1,0-.74Zm0,2.43v3.35l0,0a2.06,2.06,0,0,1-.48-.74,2.52,2.52,0,0,1-.17-.93,2.28,2.28,0,0,1,.12-.78,2.08,2.08,0,0,1,.32-.61,2,2,0,0,1,.23-.27Zm0,5.83,0,0a6.62,6.62,0,0,0-.51-.58,3.9,3.9,0,0,0-.63-.51,2.85,2.85,0,0,0-.74-.37,2.67,2.67,0,0,0-.86-.14,2.8,2.8,0,0,0-.7.09,2,2,0,0,0-.61.29,1.42,1.42,0,0,0-.43.48l0,0v1.27a1.39,1.39,0,0,0,.37.46,1.73,1.73,0,0,0,.54.28,2.07,2.07,0,0,0,.66.1,2.59,2.59,0,0,0,.47,0,2.75,2.75,0,0,0,.47-.13l-.19-.78a2.24,2.24,0,0,1-.78.15,1.1,1.1,0,0,1-.64-.17.55.55,0,0,1-.23-.46.6.6,0,0,1,.08-.29.58.58,0,0,1,.22-.25,1,1,0,0,1,.35-.18,1.83,1.83,0,0,1,.49-.06,1.9,1.9,0,0,1,.83.18,2.65,2.65,0,0,1,.71.47,5.39,5.39,0,0,1,.61.71c.2.27.39.56.57.86h0Zm-4.53-5H7.81a1.48,1.48,0,0,1-.68.22v0a13.39,13.39,0,0,0,1.14,1.52,10.46,10.46,0,0,0,1.23,1.16V43l-.38.45a8.84,8.84,0,0,1-.87-.73c-.27-.27-.53-.54-.77-.82S7,41.31,6.78,41s-.4-.58-.57-.85-.34-.55-.48-.81-.26-.5-.36-.73l.73-.39c.07.15.14.29.2.39a1.1,1.1,0,0,0,.21.25.55.55,0,0,0,.21.14,1,1,0,0,0,.24,0,.61.61,0,0,0,.55-.29A1.47,1.47,0,0,0,7.68,38a2.56,2.56,0,0,0,0-.55,4.42,4.42,0,0,0-.14-.52,3.8,3.8,0,0,0-.18-.47c-.06-.15-.12-.28-.18-.4H4.64v-.79H9.49v.79H8.06a5.58,5.58,0,0,1,.35,1,3.72,3.72,0,0,1,.13,1,3.15,3.15,0,0,1,0,.44,1.45,1.45,0,0,1-.12.42h1.1v.78Zm0,4.25v1.27h0a1.46,1.46,0,0,1-.14-.63A1.44,1.44,0,0,1,9.49,43.94Z"/><path class="cls-1" d="M112.45,40.28V39.5h1.48V36.07h-1.48v-.79h3.49v.79h-1.13V43.3h-.88v-3Zm-4.11-5h.19v.79h1.56V39.5h-.81l-.18.05a.38.38,0,0,0-.11.11.36.36,0,0,0,0,.19,1,1,0,0,0,.08.35,3.72,3.72,0,0,0,.21.39,3.57,3.57,0,0,0,.3.38,2.6,2.6,0,0,0,.35.32,1.92,1.92,0,0,0,.35.23.75.75,0,0,0,.31.08.48.48,0,0,0,.22,0,.27.27,0,0,0,.13-.13.65.65,0,0,0,.06-.21,2.81,2.81,0,0,0,0-.3v-.64h1.48V39.5H111V36.07h1.48v-.79Zm-4.11,0h3.92v.79h-.75v7.76h-.88V42h0a3.08,3.08,0,0,1-.58.51,3.12,3.12,0,0,1-.63.32,3,3,0,0,1-.61.17l-.44.05v-.83a2.43,2.43,0,0,0,.66-.14,3.1,3.1,0,0,0,.7-.37,3.33,3.33,0,0,0,.56-.49,3.15,3.15,0,0,0,.37-.52v-4.6h-1.6v2h-.69V35.28Zm0,5.1h0l.37,0,.33-.06v-.82a6.31,6.31,0,0,1-.73.11ZM104,37.27v-1.2h-3.86v-.79h4v2.78h-1.4l-.32,0a.92.92,0,0,0-.29.11.58.58,0,0,0-.2.21.74.74,0,0,0-.07.36.82.82,0,0,0,.11.44.79.79,0,0,0,.31.26,1.48,1.48,0,0,0,.45.12,4.39,4.39,0,0,0,.53,0,8,8,0,0,0,.84,0h0v.82l-.34,0h-.5a1.1,1.1,0,0,0-.16.15,1.88,1.88,0,0,0-.16.23,1.36,1.36,0,0,0-.11.28,1.06,1.06,0,0,0,0,.31.75.75,0,0,0,.09.37.82.82,0,0,0,.24.25,1.14,1.14,0,0,0,.37.15,2.19,2.19,0,0,0,.46,0h.16V43h-.12a2.88,2.88,0,0,1-.86-.12,2.11,2.11,0,0,1-.65-.34,1.34,1.34,0,0,1-.41-.51,1.4,1.4,0,0,1-.15-.64,1.55,1.55,0,0,1,.13-.64,1.76,1.76,0,0,1,.31-.46v0a2,2,0,0,1-.66-.25,1.8,1.8,0,0,1-.43-.38,1.53,1.53,0,0,1-.23-.46,2.07,2.07,0,0,1-.07-.49,1.57,1.57,0,0,1,.1-.58,1.16,1.16,0,0,1,.29-.46,1.62,1.62,0,0,1,.5-.3,2.13,2.13,0,0,1,.71-.1Z"/></g></g></svg>