<svg xmlns="http://www.w3.org/2000/svg" viewBox="0 0 67.23 58.89"><defs><style>.cls-1{fill:#c5c6c6;fill-rule:evenodd;}</style></defs><g id="Layer_2" data-name="Layer 2"><g id="Layer_1-2" data-name="Layer 1"><path class="cls-1" d="M10.29,14.11c2.33-.49,9-.17,11.86-.17,6,0,33.62-.34,35.63.35,3.6,1.25,4,3.67,4,8.06V46.21c0,3.38-.89,6.23-4.82,7.07-2.23.48-9.19.15-12,.15-6,0-33.54.36-35.59-.37-3.63-1.27-4.07-3.52-4.07-8V21.17c0-4.19,1.38-6.31,4.92-7.06ZM47.54,51h4.53l.77,0,0-27.61h-5.3l0,.76V51Zm-32.63-7.3H20.3L20.2,16.1H14.94l0,27.59Zm-2.36-4.1H7.28C7.07,45.24,6.21,50.92,12,51H36.23c2.35,0,5.7.5,7.33-.77C45.39,48.78,45,46.43,45,43.66V35.45c0-6.07-1.89-4.87-11.12-4.87-7.21,0-6.2.82-6.23-5.89,0-1.26-.15-2.68.9-3.18.69-.32,20.4-.18,23.92-.17,2.91,0,2,1.38,2.12,6.08l5.28,0C59.88,18,61.06,16,55.2,16,49.79,16,44.38,16,39,16,21.08,16,22,13.43,22.35,31.94c0,3.13.9,4,4.11,4,2.66,0,5.35,0,8,0,5.1,0,5.27-.53,5.25,2.64,0,1.37,0,2.75,0,4.11,0,4,.71,3-9,3H14.52c-2.57,0-2-1-2-6.15ZM67,49.92c.4-2.71.12-24.45.13-29.14,0-5.43-1.27-8.1-4.34-10.33C59.29,7.9,55,8.58,49.92,8.58H20.59c-3.79,0-11-.52-14.06.7a10.5,10.5,0,0,0-6.39,8c-.25,1.6-.08,27-.08,29.27,0,2.65,0,4.29,1,6.42,3.19,6.84,10.43,5.78,16.19,5.78H46.6c3.64,0,11.21.48,14-.71A10.22,10.22,0,0,0,67,49.92Z"/><path class="cls-1" d="M11.08,3.23,10.52,1.6c0-.05,0-.13-.07-.24s0-.26-.08-.43a4.16,4.16,0,0,1-.08.43l-.06.26L9.69,3.23ZM7.88,5.14l1.91-5H11l1.94,5H11.74l-.41-1.07H9.38L9,5.14Zm6.69-2.76h.15a.92.92,0,0,0,.64-.18.77.77,0,0,0,.2-.58.67.67,0,0,0-.2-.54.93.93,0,0,0-.64-.17h-.15V2.38ZM13.49,5.14v-5h1.23a2.32,2.32,0,0,1,1.46.38,1.39,1.39,0,0,1,.48,1.17,1.42,1.42,0,0,1-.48,1.14,1.94,1.94,0,0,1-1.32.42h-.29V5.14Zm5-2.76h.15a.94.94,0,0,0,.64-.18.77.77,0,0,0,.2-.58.67.67,0,0,0-.2-.54.94.94,0,0,0-.64-.17h-.15V2.38ZM17.39,5.14v-5h1.24a2.32,2.32,0,0,1,1.46.38,1.39,1.39,0,0,1,.47,1.17,1.42,1.42,0,0,1-.47,1.14,1.94,1.94,0,0,1-1.32.42h-.29V5.14Zm7.55,0H23.7L22.38,2.79V5.14H21.3v-5h1.54a2.18,2.18,0,0,1,1.37.36,1.26,1.26,0,0,1,.46,1.07,1.3,1.3,0,0,1-.31.88,1.2,1.2,0,0,1-.81.43l1.39,2.29ZM22.38,2.26h.16a1.65,1.65,0,0,0,.86-.15.54.54,0,0,0,.21-.49.6.6,0,0,0-.23-.53,1.59,1.59,0,0,0-.84-.16h-.16V2.26Zm8.33.38a2.64,2.64,0,0,1-.2,1,2.52,2.52,0,0,1-.58.85,2.74,2.74,0,0,1-2.8.62,3.22,3.22,0,0,1-.81-.45,2.55,2.55,0,0,1-.72-.91,2.52,2.52,0,0,1-.25-1.12,2.64,2.64,0,0,1,.19-1,2.6,2.6,0,0,1,.59-.85A2.71,2.71,0,0,1,28,0a2.76,2.76,0,0,1,1,.2,3,3,0,0,1,.88.57,2.57,2.57,0,0,1,.58.85,2.69,2.69,0,0,1,.2,1ZM28,4.32a1.47,1.47,0,0,0,1.13-.48,1.68,1.68,0,0,0,.44-1.2,1.69,1.69,0,0,0-.45-1.2A1.44,1.44,0,0,0,28,1a1.49,1.49,0,0,0-1.13.48,1.73,1.73,0,0,0-.45,1.21,1.72,1.72,0,0,0,.44,1.2A1.5,1.5,0,0,0,28,4.32Zm4.73.82-1.85-5h1.18l1,3.14c0,.06,0,.18.09.35s.08.38.12.6c0-.22.06-.41.1-.58s.07-.3.1-.41l1-3.1h1.17l-1.87,5Zm3.43,0v-5h3V1H37.27v1h1.88V3H37.27V4.22h1.88v.92Zm5.09-.91h.6a1.72,1.72,0,0,0,1.23-.38,1.7,1.7,0,0,0,.38-1.22,1.7,1.7,0,0,0-.38-1.22A1.72,1.72,0,0,0,41.88,1h-.6v3.2Zm-1.08.91v-5h1.37a5.38,5.38,0,0,1,1.28.12,2.27,2.27,0,0,1,.82.37,2.22,2.22,0,0,1,.69.86,2.76,2.76,0,0,1,.24,1.18,2.76,2.76,0,0,1-.24,1.18,2.1,2.1,0,0,1-.71.85,2.13,2.13,0,0,1-.76.36,5.36,5.36,0,0,1-1.23.11H40.2Zm8.53-.84h.42a.94.94,0,0,0,.62-.18.65.65,0,0,0,.2-.51.6.6,0,0,0-.2-.49,1,1,0,0,0-.6-.17h-.44V4.3Zm0-2.18H49A1.33,1.33,0,0,0,49.66,2a.54.54,0,0,0,.2-.46.48.48,0,0,0-.19-.45A1.25,1.25,0,0,0,49,.94h-.26V2.12Zm-1.08,3v-5h1a6.66,6.66,0,0,1,1.06.06,2,2,0,0,1,.59.19A1.27,1.27,0,0,1,50.7.8a1.17,1.17,0,0,1,.16.62,1,1,0,0,1-.26.72,1.42,1.42,0,0,1-.79.36,1.66,1.66,0,0,1,.92.39A1.12,1.12,0,0,1,51,3.7a1.3,1.3,0,0,1-.18.68,1.26,1.26,0,0,1-.49.48,2.13,2.13,0,0,1-.66.21,7.17,7.17,0,0,1-1.23.07h-.83Zm5.11,0V2.84L51.06.11h1.26l.74,1.38a1.62,1.62,0,0,1,.12.26q.06.17.12.36c0-.11.07-.22.11-.33s.08-.2.13-.3L54.28.11h1.26l-1.7,2.73v2.3ZM58.18,2.4A.53.53,0,0,1,58.35,2a.57.57,0,0,1,.42-.17.58.58,0,0,1,.58.58.57.57,0,0,1-.17.42.53.53,0,0,1-.41.17.54.54,0,0,1-.42-.17.55.55,0,0,1-.17-.42Zm0,2.25a.54.54,0,0,1,.17-.42.57.57,0,0,1,.42-.17.57.57,0,0,1,.41.17.57.57,0,0,1,.17.42.57.57,0,0,1-.17.41.54.54,0,0,1-.41.18.6.6,0,0,1-.59-.59Z"/></g></g></svg>