<svg xmlns="http://www.w3.org/2000/svg" viewBox="0 0 97.55 51.67"><defs><style>.cls-1{fill:#c5c6c6;fill-rule:evenodd;}</style></defs><g id="Layer_2" data-name="Layer 2"><g id="Layer_1-2" data-name="Layer 1"><path class="cls-1" d="M80.53,10.69a7.69,7.69,0,1,1-5.12,2.58,7.65,7.65,0,0,1,5.12-2.58Zm9.59,11.52.5-1.47v-.11a9.69,9.69,0,0,0-16.32-9,10,10,0,0,0-1.85,2.65,9.45,9.45,0,0,0-.91,3.61,9.67,9.67,0,0,0,12,10,8.51,8.51,0,0,0,1.66-.57c.29-.13.48-.24.76-.38a6.58,6.58,0,0,1,.66-.37,1.41,1.41,0,0,0,0,1,1.77,1.77,0,0,0,.53.68l1.22,1.22,3.5,3.5L92,33c.34.36.81.82,1.19,1.2a1.33,1.33,0,0,0,1.75.15,7.09,7.09,0,0,0,.62-.6l.59-.58c.21-.21,1.08-1.05,1.2-1.24.71-1.18-.55-2-1.48-2.94-.54-.56-2.38-2.32-2.72-2.72l0,0L91,24.2c-.77-.81-1-.58-1.68-.52Z"/><polygon class="cls-1" points="62.1 18.34 66.83 18.34 66.84 0.06 62.08 0.07 62.1 18.34"/><path class="cls-1" d="M67.59,18.33h3a11.52,11.52,0,0,1,0-2.36c0-.33.1-.72.17-1s.22-.63.26-1V.07l-3.46,0Z"/><path class="cls-1" d="M77.64,7.55c.49-.08.85-.23,1.57-.32.29,0,.6-.07.88-.08s.73,0,1,0l0-7.08H77.62Z"/><path class="cls-1" d="M72.52,11.08a3.69,3.69,0,0,0,.63-.67l1.12-1.08V.08l-1.76,0Z"/><path class="cls-1" d="M83.18.41V7.5l1,.37a9.61,9.61,0,0,0,1,.43V.07h-2Z"/><path class="cls-1" d="M75.44,8.51a5.39,5.39,0,0,0,.58-.3c.19-.09.41-.18.58-.28l0-7.86H75.36v8.4C75.4,8.54,75.28,8.57,75.44,8.51Z"/><path class="cls-1" d="M67.59,18.33l0-18.24L71,.07V14c.08-.15,0-.23,0-.43v-.42a8.81,8.81,0,0,0,0-.89c0-.28,0-.61,0-.9s0-.55,0-.84c0-.45.06-4.77,0-5.25V.05a29.7,29.7,0,0,0-3.53,0l0,2.29c0,.7,0,1.57,0,2.29s0,1.55,0,2.29,0,1.55,0,2.3,0,1.57,0,2.31v5.72C67.51,17.4,67.46,18.25,67.59,18.33Z"/><path class="cls-1" d="M77.64,7.55l0-7.47h3.44l0,7.08c.12-.07.09-.66.09-.83s0-.6,0-.9c0-.83.08-5.1,0-5.39a34,34,0,0,0-3.5,0c0,.45,0,3,0,3.74V7.08C77.56,7.29,77.54,7.45,77.64,7.55Z"/><path class="cls-1" d="M75.44,8.51c-.16.06,0,0-.09,0V.08h1.27l0,7.86c.07-.08.05.11.08-.15V0a9,9,0,0,0-1.37,0V8.6C75.5,8.57,75.37,8.59,75.44,8.51Z"/><path class="cls-1" d="M8.25,12.66V32.27H3.37V21.74A18.78,18.78,0,0,0,3.26,19a1,1,0,0,0-.6-.7,6.06,6.06,0,0,0-2.18-.24H0V15.79a8.88,8.88,0,0,0,5.38-3.13ZM21.69,19.3v6.54a15.44,15.44,0,0,1-.25,3.24,4.43,4.43,0,0,1-1,1.9,4.25,4.25,0,0,1-1.84,1.27,7,7,0,0,1-2.4.39,9.31,9.31,0,0,1-2.92-.4A4.12,4.12,0,0,1,11.43,31a5.35,5.35,0,0,1-1-1.81,11,11,0,0,1-.29-3V19.3a13.09,13.09,0,0,1,.47-4,4,4,0,0,1,1.85-2.16,6.52,6.52,0,0,1,3.35-.81,7,7,0,0,1,2.88.56,4.85,4.85,0,0,1,1.9,1.38,4.54,4.54,0,0,1,.85,1.82,16.58,16.58,0,0,1,.23,3.25ZM16.8,17.66a7.33,7.33,0,0,0-.15-1.95.67.67,0,0,0-.71-.4.7.7,0,0,0-.72.42A6.22,6.22,0,0,0,15,17.66v9.55a7,7,0,0,0,.17,2.06.7.7,0,0,0,.71.35.68.68,0,0,0,.71-.42,5.83,5.83,0,0,0,.17-1.84v-9.7ZM35,19.3v6.54a15.44,15.44,0,0,1-.25,3.24,4.43,4.43,0,0,1-1,1.9,4.25,4.25,0,0,1-1.84,1.27,7,7,0,0,1-2.4.39,9.31,9.31,0,0,1-2.92-.4A4.12,4.12,0,0,1,24.72,31a5.35,5.35,0,0,1-1-1.81,11.43,11.43,0,0,1-.29-3V19.3a13.09,13.09,0,0,1,.47-4,4,4,0,0,1,1.85-2.16,6.52,6.52,0,0,1,3.35-.81,6.92,6.92,0,0,1,2.88.56,4.85,4.85,0,0,1,1.9,1.38,4.41,4.41,0,0,1,.85,1.82A16.58,16.58,0,0,1,35,19.3Zm-4.89-1.64a7.33,7.33,0,0,0-.15-1.95.67.67,0,0,0-.71-.4.7.7,0,0,0-.72.42,6.22,6.22,0,0,0-.18,1.93v9.55a7,7,0,0,0,.17,2.06.7.7,0,0,0,.71.35.68.68,0,0,0,.71-.42,5.83,5.83,0,0,0,.17-1.84v-9.7Zm19.13-5.37L41.58,32.64H39.72l7.64-20.35ZM43.53,16a5.53,5.53,0,0,0-.29-2.09,2.45,2.45,0,0,0-1.15-1.15,4.57,4.57,0,0,0-2.24-.48,4.4,4.4,0,0,0-2.09.44,2.32,2.32,0,0,0-1.14,1.13,5.74,5.74,0,0,0-.3,2.15v3.52a4.87,4.87,0,0,0,.29,1.88,2.44,2.44,0,0,0,1.09,1.12,4.82,4.82,0,0,0,2.36.47,4.24,4.24,0,0,0,2.16-.49,2.38,2.38,0,0,0,1.07-1.15,6.22,6.22,0,0,0,.24-2V16Zm-3.09-.87a3.39,3.39,0,0,0-.08-1c0-.12-.2-.18-.43-.18a.45.45,0,0,0-.42.19,3,3,0,0,0-.09,1v5a3.74,3.74,0,0,0,.08,1c.06.11.2.17.44.17s.35-.07.4-.2a2.41,2.41,0,0,0,.1-.91v-5ZM52.61,25.47a5.69,5.69,0,0,0-.29-2.07,2.49,2.49,0,0,0-1.14-1.16,4.58,4.58,0,0,0-2.25-.48,4.52,4.52,0,0,0-2.09.44,2.32,2.32,0,0,0-1.15,1.14,5.66,5.66,0,0,0-.3,2.13V29a4.84,4.84,0,0,0,.29,1.87A2.53,2.53,0,0,0,46.78,32a4.81,4.81,0,0,0,2.35.47A4.21,4.21,0,0,0,51.29,32a2.4,2.4,0,0,0,1.07-1.16,6.07,6.07,0,0,0,.25-2V25.47Zm-3.1-.85a3.39,3.39,0,0,0-.08-1c0-.13-.19-.19-.43-.19s-.36.06-.42.19a3,3,0,0,0-.09,1v5a3.65,3.65,0,0,0,.08,1c.06.11.21.17.44.17a.43.43,0,0,0,.42-.19,3.24,3.24,0,0,0,.08-.92Z"/><path class="cls-1" d="M8,37.21V40H5.87V51.37H2.18V40H0V37.21Zm.84,0h2.61a20.28,20.28,0,0,1,3.52.2,2.42,2.42,0,0,1,1.5,1,4.64,4.64,0,0,1,.59,2.64,4,4,0,0,1-.42,2.21,2.12,2.12,0,0,1-1.61.68,2.85,2.85,0,0,1,1.47.73,2.08,2.08,0,0,1,.46.84,11.7,11.7,0,0,1,.1,2.09v3.74H13.67V46.66a3.24,3.24,0,0,0-.18-1.41q-.18-.27-.93-.27v6.39H8.87V37.21Zm3.69,2.42v3.15a1.61,1.61,0,0,0,.86-.17c.17-.12.25-.49.25-1.11v-.78a1.17,1.17,0,0,0-.24-.88,1.35,1.35,0,0,0-.87-.21Zm12.3-2.42L27,51.37H23.2L23,48.82H21.68l-.2,2.55H17.67l1.86-14.16Zm-2,9.11c-.17-1.6-.36-3.59-.55-6-.37,2.72-.6,4.7-.7,6Zm13.28-2.93H32.5V40.93a4.33,4.33,0,0,0-.12-1.34.5.5,0,0,0-.52-.27.53.53,0,0,0-.56.33,4.51,4.51,0,0,0-.13,1.4v6.56A4.25,4.25,0,0,0,31.3,49a.51.51,0,0,0,.54.31.5.5,0,0,0,.53-.31,5.34,5.34,0,0,0,.13-1.49V45.69h3.68v.56a10.73,10.73,0,0,1-.31,3.11A3.12,3.12,0,0,1,34.5,51a4.71,4.71,0,0,1-2.62.69,5.43,5.43,0,0,1-2.66-.58,2.83,2.83,0,0,1-1.39-1.63,10.54,10.54,0,0,1-.34-3.11V42.21a18.5,18.5,0,0,1,.1-2.29,3.17,3.17,0,0,1,.63-1.47,3.42,3.42,0,0,1,1.44-1.12,5.93,5.93,0,0,1,4.8.23,3,3,0,0,1,1.39,1.56A9.5,9.5,0,0,1,36.18,42v1.35Zm1.32-6.18h6.14V40H41.19v2.7h2.29v2.69H41.19v3.11h2.7v2.83H37.5V37.21Zm13.78,0,2.11,14.16H49.63l-.2-2.55H48.1l-.2,2.55H44.09L46,37.21Zm-2,9.11c-.18-1.6-.36-3.59-.56-6-.36,2.72-.59,4.7-.69,6ZM54,37.21h3.66a9.63,9.63,0,0,1,2.63.27,2.63,2.63,0,0,1,1.45,1.1,5,5,0,0,1,.54,2.66A2.89,2.89,0,0,1,61.92,43a2.82,2.82,0,0,1-1.54.75,2.78,2.78,0,0,1,1.74,1,3.75,3.75,0,0,1,.45,2.06V48a5.22,5.22,0,0,1-.33,2.13,1.73,1.73,0,0,1-1,.94,10.5,10.5,0,0,1-2.93.26H54V37.21Zm3.69,2.42v3.15h.36c.35,0,.58-.09.67-.27A4.33,4.33,0,0,0,58.89,41a2.55,2.55,0,0,0-.12-.94.58.58,0,0,0-.32-.33,2.28,2.28,0,0,0-.74-.08Zm0,5.35v4a1.59,1.59,0,0,0,1-.24,1.77,1.77,0,0,0,.21-1.08V46.3a1.93,1.93,0,0,0-.19-1.1,1.68,1.68,0,0,0-1-.22Zm9.87-7.77V51.37H63.9V37.21Zm5.16,0V48.54H75v2.83h-5.9V37.21Zm6.81,0V51.37H75.86V37.21Zm8.87,0V40H86.26V51.37H82.57V40H80.39V37.21Zm9.12,0-2.68,9v5.13h-3.4V46.24l-2.59-9h3.38q.78,4.15.89,5.59.31-2.27,1-5.59Z"/></g></g></svg>