<svg xmlns="http://www.w3.org/2000/svg" viewBox="0 0 128.87 57.16"><defs><style>.cls-1{fill:#c5c6c6;fill-rule:evenodd;}</style></defs><g id="Layer_2" data-name="Layer 2"><g id="Layer_1-2" data-name="Layer 1"><path class="cls-1" d="M72.52,36.24l2.85.71-2.88.31,0-1Zm0-4.07,0,3.55a5.41,5.41,0,0,0,4.56.8,14.27,14.27,0,0,0,4-1.81A34.9,34.9,0,0,0,77.88,30c-.85.3-1.7.79-2.6,1.16s-2.09.63-2.74,1Zm-3.67.6L70,32.66V34a2.06,2.06,0,0,1-1.08-1.18ZM70,37.18V34.54a7.32,7.32,0,0,1-1.77-1.7c-5.73,0-6.45-.36-10.94-2.88A17.75,17.75,0,0,0,70,37.18ZM72.52,22a8.29,8.29,0,0,1,1.32,1.8L75,25.51a30.71,30.71,0,0,1,2.28,3.58,14.63,14.63,0,0,1-4.79,2l0-9.11Zm10.14,7.27a4.7,4.7,0,0,1-1.14-1.67l.46-.24.68,1.91Zm-.33-2.47a15.93,15.93,0,0,0,1.8,4.79l.73-.82c.19-.31.38-.64.58-1a14.08,14.08,0,0,0,1.45-8.15c-1,1.35-3,4.49-4.56,5.22ZM59.12,21.14l3.68.08c.33,1,.5,2.05.81,3.07C65.07,29.16,66,29.37,67.32,32c-6.14.78-13.41-3.22-13.47-10.39,2.2.35,3.52,1.39,5.26,2V21.14Zm4.19,0c1.87-.18,1.92-.44,3.78.15a4,4,0,0,1,2.54,1.82c.63,1.28.37,6.76.34,8.61l-2,.17c-1.8-1.81-4.31-7.42-4.71-10.75ZM86,30.33c1-3,2-4.9,1.49-8.83-.3-2.38,1.49-2.13,1.54-8.64,1.36,1.91,1.1,7.49.53,10a19.1,19.1,0,0,1-2.46,6c-.33.53-.89,1.14-1.1,1.53ZM69.75,19.53h6c.28.5,4.64,7.06,5.27,7.22l.39-.26c-.09-1.64-5.24-9.61-6.16-10.32-.72.35-1.68,1.17-2.62,1.72a20.55,20.55,0,0,0-2.92,1.63ZM54.48,18.38c.12.18,0,.15.09.32-.79-.15-.5,0-.52-.7.42.28.06-.15.43.38ZM75.8,15.83c.65,1.14,2.15,3,3.22,4.85L81.93,26a20.4,20.4,0,0,0,4.66-5.48c.77-1.75-3.37-9.31-6-10.61-.37.48-.66,1.11-1,1.59s-.79,1.09-1.17,1.58c-.77,1-2.11,1.93-2.7,2.77ZM63.11,11.26c3-.09,4-.8,6-2,.78.51,5.2,5.21,5.61,6.25-1.2.95-6.16,4-8.2,4l-3.54,0a28.89,28.89,0,0,1,.09-8.26Zm-1.88,9.29,1.28-.07c-.33-.18-.54-.13-.37-.67.26-.83.33.45.38-.88,0-.56-.17-1.9-.2-2.61-.08-1.8.4-3.64.34-5.14C60.14,10.74,60.52,9.5,60,8.59c-2,2-3.57,3.51-5.05,6.91A1.88,1.88,0,0,0,55,17.7c1.25,2.06,3.45,1,4,1.95.3.47-.57.91,2.2.9ZM69.66,8.88c1.27-1.9.8-.15,2.2-3.54,2.57.51,6.91,2.55,8.17,4-.49,1.73-3.53,5.1-4.74,5.69-.43-.23-.12,0-.44-.39,0,0-.27-.33-.36-.44L69.66,8.88Zm-6.37,1.81c2.91.05,4-1.22,5.42-1.77A14,14,0,0,0,65,5.84a15,15,0,0,0-1.68,4.85Zm-8.95,4.62a9.12,9.12,0,0,1,6.8-9.38C60,8.54,59.44,8.17,57.51,10.5a26.2,26.2,0,0,0-3.17,4.81Zm8.49-4.66c.26-.86.47-1.8.78-2.63a18.7,18.7,0,0,0,1-2.47,16.17,16.17,0,0,0-3.35,2c-1.38,1.16,0,2.8,1.61,3.07Zm8-5.52c-.87-.31-7.31-.86-5.06.7.32.22.42.23.79.51s.8.6,1.28,1a10,10,0,0,0,1.36,1.09,4.18,4.18,0,0,0,2-3.1c-.25-.17.17,0-.38-.19ZM61.2,7A2.43,2.43,0,0,1,63.92,5.2,21.05,21.05,0,0,1,61.2,7Zm-3.08,0a26.33,26.33,0,0,0,4.34-2.23c-1.35-1.26-3.83,1.5-4.34,2.23Zm9-2.64c.74-.21,1.51-.62,2.4-.87s1.45.41,1.59,1.18l-4-.31ZM80.84,9.35a21,21,0,0,1,3.77,4.29,18.77,18.77,0,0,1,2.28,4.84c.17.49.06.4.37.77,1.09-3.17,1.24-2.91,1.24-6.17,0-4.21-4.43-9-7.66-9.54,1,2.77.66,3.09,0,5.81ZM63.52,4.51a5.51,5.51,0,0,1,2.76-1.34l-.48.75a2,2,0,0,1-2.28.59ZM71,3.09C72.32,4.33,71,4.58,72.69,5c4.34,1.1,5.1,2.42,7.58,3.79a5.36,5.36,0,0,0-.2-5c-.36-.64-.48-.76-1.32-.93A17.28,17.28,0,0,0,71,3.09ZM66.07,4.16,69.24,3c-2-.43-2.46-.09-3.17,1.16Zm15.5-.94c-1.12-.14-1.23-.26-1.69-.92a3.13,3.13,0,0,1,1.69.92ZM67.72,2.39c2-2.18,5.73-2.25,8.58-1.31a5.26,5.26,0,0,1,2.42,1.36,25.26,25.26,0,0,0-5.78-.12,22.79,22.79,0,0,1-2.62.37,17.14,17.14,0,0,0-2.6-.3Zm-6,1.46C62.87,2.74,67.38.93,69.45.79c-.53.43-1.22.74-1.73,1.16-1.31,1.1-1.76.54-4,1.86-.89.53-1,.44-2,0ZM52.83,18.57C44.06,18.29,40.2,24,41.55,31c0,.18.1.5.16.67l.29.56,6.94,1.61c-1.44-1.6-4.59-3.53-3.55-8.27,1.07-4.93,7.09-4.73,7.6-4,.33,1.23.29,2.2.73,3.47a19.4,19.4,0,0,0,14.64,12.7c.3.05.58.07.86.12.83.14.52-.08.76.37V50.76l2.5,0V38c4.53-.08,6.1-1.5,9-2.57a32.77,32.77,0,0,1,3.16,4.76c2-1.08,9.83-15.65,12-18.27l.06,28.9h4.24V19.56H95c-.49.78-8.76,13.35-9.34,13.89a1.19,1.19,0,0,1-.6-.79A19.17,19.17,0,0,0,90.28,15.1C88.85,8.7,85.74,4.67,79.72,1.86,75.93.09,75-.28,70,.18c-6.52.6-11.08,4-14.48,9.1C53.59,12.12,53.21,14.7,52.83,18.57Z"/><path class="cls-1" d="M23.55,23.6c.35.46,3.45,8.54,3.71,9.52-1.16.06-2.62-.08-3.87-.08s-2.64.07-4,.08l4.13-9.52ZM14,18.91c0,.89.5.69,1.47.84,7.44,1.15,6.5.84,3.54,7.69-.89,2.06-1.73,3.94-2.59,6-3,.52-5.62.91-8.43,1.59L2,36.53a4.38,4.38,0,0,0-2,.76,7.94,7.94,0,0,1,1.91-.19l5.56-.94c2.72-.4,5.23-.59,8-.79L8.9,50.72l3,0L18.5,35.26a66.85,66.85,0,0,1,9.68.2c1.9,4.07,3.92,10.6,5.92,15.25C37.69,50.86,37,52,39,52.47L32.54,35.91c5.81.18,17.08,3.08,21.66,6.68,9.27,7.3-5.09,14.11-7.45,14.57,1.18,0,5-1.54,6.2-2.06,6.25-2.78,12.57-8,5.13-14-5.67-4.58-17.58-7-26.47-7.69L25.82,18.75c-2-.06-4,0-6,0C19.15,18.73,14.54,18.56,14,18.91Z"/><path class="cls-1" d="M102.9,19.71c0,1.13.76.55,3.47,1.28,4.19,1.13,3.85,2.49,3.85,5.68v24l18.36,0,.29-5.94-.46.46c-.1.13-.24.36-.39.58-2.79,4-5.47,3.12-10.52,3.1-3.86,0-3.13-1-3.14-4.57,0-2.6,0-5.22,0-7.83h8.21l.09-2.31-8.29,0,0-10.69c.06-1.39.41-1.87,1.71-2a50.83,50.83,0,0,1,7.09,0c3,.21,2.75,1.42,3.42,3.79H128l-.19-5.51c-1.29-.35-10.32-.09-12.37-.09S103.86,19.27,102.9,19.71Z"/><path class="cls-1" d="M81.57,3.22a3.13,3.13,0,0,0-1.69-.92C80.34,3,80.45,3.08,81.57,3.22Z"/></g></g></svg>