<svg xmlns="http://www.w3.org/2000/svg" viewBox="0 0 52.72 33.85"><defs><style>.cls-1{fill:#1b92d1;}.cls-1,.cls-2{fill-rule:evenodd;}.cls-2{fill:#1a183e;}</style></defs><g id="Layer_2" data-name="Layer 2"><g id="Layer_1-2" data-name="Layer 1"><path class="cls-1" d="M25.27,28.51a25.27,25.27,0,0,0-.69-3.4,2.44,2.44,0,0,1,.84-2.89c.72-.62.72-1.15,0-1.74-.17-.13-.28-.34-.44-.48a.79.79,0,0,1,0-1.33c.38-.39.7-.84,1.12-1.36a21.82,21.82,0,0,1-2.19-.55,8.59,8.59,0,0,1-5.3-8.71A8.53,8.53,0,0,1,22,1.46,7,7,0,0,1,32.13,3.2a9.25,9.25,0,0,1-1.64,12.45,7.72,7.72,0,0,1-1.95,1.08,17.25,17.25,0,0,1-2.22.58c.41.5.73,1,1.11,1.33a.83.83,0,0,1,0,1.29c-1.16,1.45-1.17,1.48,0,2.87a1.74,1.74,0,0,1,.44,1.77c-.34,1.28-.54,2.6-.8,3.91l.28.09c1.24-3.36,2.47-6.72,3.74-10.16a12.4,12.4,0,0,1,4.65,3.4A18.21,18.21,0,0,1,40.18,33c0,.68-.16.88-.82.88H13c-.5,0-.84-.07-.79-.71.45-5.86,2.58-10.8,7.75-14.06a12.89,12.89,0,0,1,1.32-.69L25,28.59Z"/><path class="cls-2" d="M34.15,19.34l2.74-1.66L40,26.11l.28-.08a12.59,12.59,0,0,0-.45-2.31,2.48,2.48,0,0,1,.76-3,5.63,5.63,0,0,0,.46-.6c-1.31-1-1.72-2.1,0-3.32-.74-.16-1.22-.23-1.67-.38a7.26,7.26,0,0,1-4.69-7.75,7.38,7.38,0,0,1,3-5.28A5.92,5.92,0,0,1,45.8,4.72a7.73,7.73,0,0,1-1.23,10.71A18.94,18.94,0,0,1,41.34,17a5,5,0,0,0,.55.78.89.89,0,0,1,0,1.43c-.91,1-.91,1.1,0,2.1a1.66,1.66,0,0,1,.44,1.83A25.82,25.82,0,0,0,41.83,26l.28.08c1-2.76,2-5.52,3-8.34a9.53,9.53,0,0,1,3.62,2.53,15,15,0,0,1,4,9.64c0,.46,0,.77-.63.77-3.71,0-7.43,0-11.14,0a1.26,1.26,0,0,1-.31-.09A18.12,18.12,0,0,0,34.15,19.34Z"/><path class="cls-2" d="M10.81,26a14,14,0,0,0-.44-2.27,2.49,2.49,0,0,1,.72-3,4.12,4.12,0,0,0,.44-.53c-.42-.57-1.12-1.11-1.17-1.71s.64-1.09,1.07-1.74c-.54-.12-1-.2-1.48-.34-3.68-1.09-5.15-5.18-4.64-8.1A7.06,7.06,0,0,1,8.65,3.17a5.9,5.9,0,0,1,8,2C19.11,9,18,14.15,14.22,16a17.88,17.88,0,0,1-2.38.81,6.41,6.41,0,0,0,.64.93.9.9,0,0,1,0,1.43c-.9,1-.94,1.12,0,2s.31,2,.23,2.95a17.48,17.48,0,0,1-.36,1.89l.26.08,3.09-8.46,2.31,1.42c-1.37,1.75-2.75,3.31-3.91,5A14.71,14.71,0,0,0,11.88,30c-.09.49-.28.69-.78.69H.08C-.56,26.28,2.9,19.18,7.51,17.85l3,8.27Z"/></g></g></svg>