<svg xmlns="http://www.w3.org/2000/svg" viewBox="0 0 32.12 30.22"><defs><style>.cls-1{fill:#008bd2;}.cls-2{fill:#fff;fill-rule:evenodd;}</style></defs><g id="Layer_2" data-name="Layer 2"><g id="Layer_1-2" data-name="Layer 1"><rect class="cls-1" width="32.12" height="30.22"/><path class="cls-2" d="M16.06,12.6c-.81-.54-4.88-5-5.47-5.34A1.27,1.27,0,0,0,8.66,8.71c.12.43,4.45,4.62,5.33,5.51,2.48,2.52,2,2,6.06-1.92.55-.54,3.39-3.11,3.45-3.85A1.25,1.25,0,0,0,21.63,7.2,13.88,13.88,0,0,0,19.72,9Z"/><path class="cls-2" d="M16.06,20a43.74,43.74,0,0,1-3.65-3.59,19.54,19.54,0,0,0-1.82-1.75,1.27,1.27,0,0,0-1.92,1.46,40.22,40.22,0,0,0,3.55,3.74c.6.63,1.15,1.15,1.77,1.78.37.38,1.34,1.57,2.07,1.56s3.23-2.71,3.84-3.35a38.72,38.72,0,0,0,3.54-3.73,1.25,1.25,0,0,0-1.81-1.51,15.07,15.07,0,0,0-1.92,1.8A47.13,47.13,0,0,1,16.06,20Z"/></g></g></svg>