<svg xmlns="http://www.w3.org/2000/svg" viewBox="0 0 14.55 14.56"><defs><style>.cls-1{fill:#fff;fill-rule:evenodd;}</style></defs><g id="Layer_2" data-name="Layer 2"><g id="Layer_1-2" data-name="Layer 1"><path class="cls-1" d="M3.45.41h0a5.75,5.75,0,0,0-1.23.7c-.17.13-.34.28-.56.48A5.39,5.39,0,0,0,.42,3.42a5,5,0,0,0-.42,2v.18c0,.14,0,.3,0,.47A5.78,5.78,0,0,0,.74,8.37a5.09,5.09,0,0,0,1.94,1.94l.06,0A6,6,0,0,0,4.22,11a5.61,5.61,0,0,0,2.7,0,5.92,5.92,0,0,0,1.58-.69c.74-.48.4-.34.95.09,0,.75-.35.73.6,1.64.53.51,1.22,1.26,1.75,1.75.38.35.79,1,1.5.77a2.3,2.3,0,0,0,1.2-1.14c.28-.88-.62-1.43-1.31-2.14A23.74,23.74,0,0,0,11.4,9.52c-.52-.29-.87,0-1,0A2.13,2.13,0,0,1,9.94,9c.08-.17.32-.47.43-.65a5.66,5.66,0,0,0,.73-2.56V5.52a2.8,2.8,0,0,0,0-.77v0a5.45,5.45,0,0,0-.18-.8,4.45,4.45,0,0,0-.32-.83,6,6,0,0,0-.31-.53A5.55,5.55,0,0,0,5.55,0a5.31,5.31,0,0,0-2.1.41Zm.47,8.12A3.19,3.19,0,0,1,2.21,6a3.36,3.36,0,0,1,.33-1.59c.07-.08,0,0,.07-.06s0,0,0,.1a.34.34,0,0,1,0,.1c.17,2.4,1.94,3.72,4.26,3.82,0,.15.07,0-.12.15a3.65,3.65,0,0,1-1.26.36A3.45,3.45,0,0,1,4,8.58l-.07-.05ZM5.55.93A4.62,4.62,0,1,1,.93,5.55,4.62,4.62,0,0,1,5.55.93Z"/></g></g></svg>