<svg xmlns="http://www.w3.org/2000/svg" viewBox="0 0 68.75 112.9"><defs><style>.cls-1{fill:#1a1a18;fill-rule:evenodd;}</style></defs><g id="Layer_2" data-name="Layer 2"><g id="Layer_1-2" data-name="Layer 1"><path class="cls-1" d="M20.8,38.21c-1.42-.44-3.26-.12-4.78-.15l.12,12.19L15.78,50a17.61,17.61,0,0,1-4.62-4.79,24.42,24.42,0,1,1,39.75,0c-1.25,1.75-2.92,4-4.65,4.79l-.1-22.08-4.84,0,.15,25.15a15.18,15.18,0,0,1-3.57,1.39l-.2-16.1-4.67,0,0,17a8.17,8.17,0,0,1-3.62-.06L29.3,42.9l-4.85,0,.12,11.58a16.27,16.27,0,0,1-3.64-1.25l-.13-15ZM36.06,61.72c.75,2.43,1.28,5.38,1.88,7.88.65,2.73,1.34,5.42,1.94,8.15L45.61,102c.91,3.93,2,7.07,5.78,9.27A11.49,11.49,0,0,0,68,97.27C67.45,95.81,62.2,86,61.11,84L50.82,64.26c-.6-1.12-1.14-2.22-1.66-3.27s-1.26-2.14-1.8-3.42c.59-.52,1.42-1,2.06-1.44l3.92-3.37c.36-.39.44-.57.77-.95,9.81-11.44,10.77-26.56,2.1-39a34.79,34.79,0,0,0-7.36-7.23A31.24,31.24,0,0,0,15.07,4.41c-15.22,9.18-20,29-9.32,44.69A16.1,16.1,0,0,0,8.18,52a24.68,24.68,0,0,0,4.88,4.35C21,61.61,26.58,62.56,36.06,61.72Z"/><path class="cls-1" d="M36.33,29c-2.62-.17-3.21.27-3.49,2.84-.83.42-2.14,1.14-2.9,1.58-2.52,1.47-1.13-.06-3.28.11s-.58,1.21-3-.24c-.92-.57-2-1.22-3-1.76.23-5.3-6.87-2.53-4.3.87,1.55,2,2.95.06,4.13.59l3.72,2.27c.69,1.45,0,2.89,2.39,3,1.93.12,2.55-1.17,2.62-3,1.38-.79,2.78-1.56,4.22-2.31,2.52,1.63,5-.13,3.81-3.13l5.41-6.72c3.71.44,3.59-2.58,3-3.55a2.38,2.38,0,0,0-4.35.65c-.6,2.69,2.13.07-3.5,6.71A16.61,16.61,0,0,0,36.33,29Z"/><path class="cls-1" d="M15.78,50l.36.26L16,38.06c1.52,0,3.36-.29,4.78.15-.31-.38.55-.35-.59-.33L16,38c-.37,1-.11,7.42-.07,9.33C16,48.14,16.16,49.79,15.78,50Z"/></g></g></svg>