<svg xmlns="http://www.w3.org/2000/svg" viewBox="0 0 94.16 122.47"><defs><style>.cls-1{fill:#1a1a18;fill-rule:evenodd;}</style></defs><g id="Layer_2" data-name="Layer 2"><g id="Layer_1-2" data-name="Layer 1"><path class="cls-1" d="M18.73,89.51l56.69,0a18,18,0,0,1-.67,4.11c-1.07.05-3.15-.34-2.64,1.26.28.88,2.5.68,3.53.58s1.31-1.21,1.58-2.33a20.7,20.7,0,0,0,.52-3.59l12.85,0,0,29.36h-87l0-29.27c.63-.16,12.07-.17,12.86,0a17.15,17.15,0,0,0,1,5c.52,1,.91.86,2.18.86s1.61.23,2.49-.5c.12-1.73-1.16-1.34-2.67-1.33a27.35,27.35,0,0,1-.67-4.11ZM39.79,59.89c-5.11,0-13.19-1.57-17-3.77-3.6-2.11.34-3.74,2.8-4.7,1.3-.5,2.74.23,4.17.52,9.72,2,23.63,2,33.25-.58,1.25-.33,2.48.23,3.83,1a17.34,17.34,0,0,1,3.24,2s-.05,0-.06.08l-1.44,1.06c-3.83,2.49-10,3.88-14.44,4.11-.08-.84-.41-1.91-.58-2.78s-.08-2.49-1-2.44-.5,1.65-.34,2.51.52,2,.6,2.85a87.5,87.5,0,0,1-11.9.23c.26-1.59,1.78-5.56.34-5.59-.89,0-.9,1.84-1,2.58s-.67,2.11-.44,2.93Zm2.58-11A53.82,53.82,0,0,1,51.5,49l-.07,1.44a74.24,74.24,0,0,1-9.08.16l0-1.76Zm25.42.8,4.38,2.76c2.43-2.18.71-4.47.19-5.55-1.22.61-2.42,1.76-4.57,2.79Zm-14.9-.52a32.91,32.91,0,0,1,4.72.65l-4.74.51,0-1.16Zm-20,.53A53.79,53.79,0,0,1,41,48.88l0,1.66c-.72,0-7.19-.37-8.09-.88Zm7.64-7.45a11.4,11.4,0,0,1-.65-2.69c-4.62.23-11,1.1-15.21,2.88-4.61,1.94-4.2,3.55.26,5.34,2.08.84,1.78.42,4.95-.25A72.67,72.67,0,0,1,40.7,46.18c.26-.12.74-1.74,1.61-.09,1.52,0,3.13,0,4.68,0s3.07.18,4.54.18c.22-.5.14-.94.85-.83s.42.57.76,1A59.58,59.58,0,0,1,62.61,48c1.11.3,1.07.46,2.18,0a19.22,19.22,0,0,0,5.34-3,3.49,3.49,0,0,0-.73-.6c-.26-.17-.56-.33-.82-.49a33,33,0,0,0-14.56-4c-.34.68-.41,1.81-.69,2.37-.66.11-.54.1-1-.19a5.69,5.69,0,0,1,.27-2.35,103.91,103.91,0,0,0-11.3-.24,8.36,8.36,0,0,1,.28,2.62c-.48.28-.4.27-1,.15ZM22.67,33.62c3.78-1.24,9.5-3.06,13.76-3.1.33.62.58,1.13.86,1.78s.43,1.52,1.19,1.4c1.32-.19-.33-2.64-.58-3.36a106.08,106.08,0,0,1,17.92.27c-.31,1-2,3.19,0,3.08a11,11,0,0,0,1.37-2.85c5.13.52,12.15,3.26,15.36,7.05a3.83,3.83,0,0,1,.89,2.68c-.08,1.29-.69,1.72-1.09,2.51l-3.81-2.35a32.38,32.38,0,0,0-9.38-2.93l-4.1-.59c-.83-.19-.21-.2-.88-.58-1.22,0-.24.36-1.46.35-.43,0-1.1-.1-1.57-.13a95.32,95.32,0,0,0-9.71-.11c-.66,0-1.23-.12-1.6-.09s-.62.2-1.32.26c-5.84.49-14,1.58-18.38,5.08-2.73,2.2-1.59,5.94,2.56,7.67-.52.55-4.74,2.17-4,5.47,2,8.65,35.78,9.51,47.47,4.65,4.18-1.74,3.9-2.31,6.15-3.53.36.79,1.06,1.3,1.11,2.64a4.08,4.08,0,0,1-1,2.71c-3,3.88-10.15,6.29-15.27,6.89.39-.95.18-1-.23-1.79-1.19-2.4-1.2-4.07-2.61-3.47-.2,1,1.22,4,2,5.05l.16.24s.06.08.09.12c-3.94.2-5.88.72-10.82.73-8.42,0-27.12-2.42-33-6.74-.87-.64-.68-.9-.67-2.28V34.88c0-3.59-.19-7.74,0-11.27.43-.32,1-.54,1.43-.89a4.4,4.4,0,0,0,1.15-4.93,5.87,5.87,0,0,0-1.12-1.51c-4-3.62-9.73,2.15-5.88,6.18a8.73,8.73,0,0,0,1.67,1.15c.2,3.25,0,7.08,0,10.4l0,28.46c.14.9.6,1.19.88,1.78A11.94,11.94,0,0,1,11.3,65c5,3.39,17.3,5.65,23,6.31a16.57,16.57,0,0,1-1.5,2.15c-.58.8-1.37,1.23-1.14,2.26a.86.86,0,0,0,.7.19c.73-.12,3.2-3.76,3.25-4.44,11.1.92,12.19.73,23-.46-.58.92.13,1.67,1.07,2.85.38.48.7.92,1,1.32s.6.81,1.41.68c.54-1.17-.5-1.49-2-3.73a3.65,3.65,0,0,0-1-1.24,29.89,29.89,0,0,0,12.73-5c7.78-5.81,2.85-10.52,2.39-11.68a6.75,6.75,0,0,0,1.94-4.51A7.53,7.53,0,0,0,74.28,45c1.31-2,2.62-3.77,1.45-6.93-2-5.44-11.91-8.84-17.43-9.8-8-1.4-21.1-1.27-29.39.69-1,.25-2.73.84-3.54.93V8.35c1.24-.77,1.41-.56,2.21-1.81a4.36,4.36,0,0,0,.53-3.26C26.48-2.45,18.37,0,19.81,5.42c.46,1.75,1.4,2.25,2.84,3l0,25.2Zm-.24,50.16c.8-1.78,2.07-3.82,3-5.6.52-1,1-1.83,1.56-2.83a11.55,11.55,0,0,1,1.58-2.71l1.15,4.11c.31,1.15.12.91.55,1.2s1.78,1,2.29,1.22a16,16,0,0,1,2.11,1.22L22.43,83.78Zm36.76-3.4a15.78,15.78,0,0,1,2.17-1.26c3.29-1.75,2.19-.34,3.92-6.47.34.31,5.67,10.1,6.11,11.17l-12.2-3.44Zm-22.47-12c-.46-.87.47-2.17.89-3.1.54-1.19.59-2.61,2-2.09.22,1-1,3.17-1.54,4.42-.33.69-.43.91-1.31.77ZM59.33,25.65c-.18-.91.78-1.81,1.57-2.77.33-.42.67-.77,1-1.19s.53-.73,1.37-.45c.27.88-.06,1.1-.54,1.58-2.13,2.1-2.08,3.72-3.4,2.83Zm-24.79,0c-1.38.79-1.46-.93-3.34-2.81-1.64-1.64-.13-2.39.76-1.2s2.78,2.79,2.58,4ZM50.32,95.44c1.28,0,5,.17,6.08-.19a1.61,1.61,0,0,0,0-1.45c-1-.36-4.78-.18-6.07-.18-1.78,0-1.75,1.82,0,1.82ZM38.18,93.68a.88.88,0,0,0-.33,1.53c.56.5,6.57.2,6.66.17a.92.92,0,0,0,.29-1.54c-.5-.44-6.39-.25-6.62-.16ZM26.25,95.25a17,17,0,0,0,4.46.19c1.62,0,3.51.38,2.69-1.63-1-.35-4.63-.19-5.91-.19-1.44,0-1.7.39-1.24,1.63Zm34.33-.31c1,.81,1.81.5,4.09.5,1.16,0,3.91.47,3.37-1.24-.3-1-2.94-.58-4.11-.58-1.62,0-3.49-.53-3.35,1.32Zm-38.34,7.84c2.54,3,3.25.93,3.18.34,0-.43-2.07-2.51-2.77-3.39-.32-.41-1-1.55-1.38-1.72a1.12,1.12,0,0,0-1.62,1.28c.13.71,2.14,2.94,2.59,3.49Zm5.41,4.27c.3.82,5.16,3,5.71,3.11a1.12,1.12,0,0,0,1.28-1.6c-.23-.59-2.49-1.31-3.83-2.06a13.77,13.77,0,0,0-1.91-1,1.1,1.1,0,0,0-1.25,1.56Zm46.83-7.61a1.1,1.1,0,0,0-1.16-1.57c-.8.06-1.15,1-1.54,1.51s-.91,1.09-1.41,1.67c-.27.32-1.36,1.4-1.47,1.61a1.09,1.09,0,0,0,1.17,1.65c.63-.09,1.38-1,1.72-1.41.52-.59.92-1,1.43-1.64a15.21,15.21,0,0,0,1.26-1.82Zm-8.06,7.9a1.45,1.45,0,0,0,.12-1.26c-.57-1.45-2.49,0-2.88.25-.59.32-3.81,1.79-3.93,1.93a1.17,1.17,0,0,0,.69,1.9,5.94,5.94,0,0,0,2.23-.74,35.26,35.26,0,0,0,3.77-2.08Zm-10.06,3.81a1.12,1.12,0,0,0-.93-1.57,14.24,14.24,0,0,0-2.2.37c-1.23.2-4,.1-4.39,1a1.14,1.14,0,0,0,.9,1.62,16.2,16.2,0,0,0,2.44-.21c.77-.1,1.58-.24,2.37-.39s1.53-.18,1.81-.87Zm-18.6-.3c.11,1.27,2.57,1.33,3.88,1.51s4.07.88,3.82-1c-.17-1.35-2.83-1.12-4.12-1.32s-3.77-1.14-3.58.84ZM36,101.19c1.85-.16,4.17-1.14,6-1s4,1,5.85,1c.48,0,11.67-2,11.71-2-.52-.56-5.42-1.44-6-1.41-1.91.1-4.14,1.3-6.17,1.28s-4.81-1.2-6.63-.36c-.91.43-4.41,2-4.78,2.54ZM3.13,86C.71,86.59,0,88.26,0,91v24.59c0,5,.24,6.85,5.23,6.84H82.82c2,0,6.45.24,8.1-.06,2.6-.47,3.24-2.55,3.23-4.88V92.85c0-3,.24-4.94-1.84-6.28-1.64-1-5.38-.63-7.59-.63H11.24C9.45,85.93,4.5,85.71,3.13,86Z"/></g></g></svg>