<svg xmlns="http://www.w3.org/2000/svg" viewBox="0 0 75.46 100.54"><defs><style>.cls-1{fill:#1a1a18;fill-rule:evenodd;}</style></defs><g id="Layer_2" data-name="Layer 2"><g id="Layer_1-2" data-name="Layer 1"><path class="cls-1" d="M43.93,92.13c-1.79,8.15-14.4,5.48-12.52-2.85,1.81-8,14.36-5.56,12.52,2.85ZM22,3.94a1.78,1.78,0,1,1-1.77,1.78A1.78,1.78,0,0,1,22,3.94Zm-5.74,0A1.78,1.78,0,1,1,14.5,5.72a1.78,1.78,0,0,1,1.77-1.78Zm-5.73,0A1.78,1.78,0,1,1,8.77,5.72a1.78,1.78,0,0,1,1.77-1.78ZM7.85,79.43a2.78,2.78,0,1,0,1.51,5.35c3.29-.89,2-6.24-1.51-5.35Zm58.37,0a2.31,2.31,0,0,0-1.69,1.16,2.82,2.82,0,0,0,3.2,4.21c3.12-.79,2.4-6.44-1.51-5.37ZM36.56,87A3.93,3.93,0,1,0,39,94.46a4,4,0,0,0,2.43-5.1A3.77,3.77,0,0,0,36.56,87ZM7.4,61.83l.1-51.69,60.51,0V48.86c0,3.89-.33,9.63-.05,13.17,0,1.89-2.26,3.91-4.37,4.22a77.84,77.84,0,0,1-9.05,0,9.12,9.12,0,0,0,2.07,2.76c2.47,0,6.82.26,9-.5a8.28,8.28,0,0,0,4.9-4.86c1-2.76.53-14.92.53-18.72,0-12.73.28-25.76,0-38.45C70-1.08,62.45.09,57.83.09,52.39.09,11.63-.26,9.4.41A7.32,7.32,0,0,0,4.56,5.57C4,8.05,4.33,39.23,4.33,44.49c0,3.85-.4,16.55.44,19C6.9,69.64,11.93,69.1,19,69.09c.37-.82,1-1,1.82-2.85a79.48,79.48,0,0,1-8.87,0C9.74,66,7.47,63.87,7.4,61.83Zm11-19.63C17.6,35,19.66,29.83,24.11,25.35a18.92,18.92,0,0,1,20-4.56,21.09,21.09,0,0,1,5.35,2.91c1.27.94,3.64,3.7,4,4,.44,1.07,1.4,2.21,2,3.73A19.36,19.36,0,0,1,56,45.59,19.45,19.45,0,0,1,18.45,42.2ZM55.93,25c-1.23-2.82-7.57-6.86-11.48-8A23.13,23.13,0,0,0,14.6,41c.27,4.31,3,11.15,6.14,13.89,1.84,1.59,1,1.4,3.93,3.37.64.43,1.6.93,2.19,1.37-2.45,6-6.34,13.49-12.3,16.57a11.07,11.07,0,0,0-2.32-1.64A8.5,8.5,0,1,0,5.82,90.2a9.05,9.05,0,0,0,6.84-.68c3.57-2.08,5-5.41,3.66-10.76a23.63,23.63,0,0,1,2.13-1.69,25.27,25.27,0,0,0,5.73-5.94c3.35-4.6,4.06-8.21,5.45-10.29a39.36,39.36,0,0,0,6.44,1.3c.32,1.26.29,16.87.07,18.81-1.58.67-4.17,1-5.9,3.29-2.32,3.08-3.27,6.88-1.37,10.82a9.63,9.63,0,0,0,8.78,5.48C48.91,100.56,52,83.69,39.16,81V62.18c2.65-.42,4.21-.8,6.52-1.34.72.89,1.8,3.91,2.46,5.24a34.41,34.41,0,0,0,6.47,9.1l4.45,3.4c-.5,2.68-1.17,3.82,0,6.75A8.54,8.54,0,0,0,74,86.87C78.81,80.06,71,70.62,63.26,74.45a13.59,13.59,0,0,0-2.51,1.72,19.55,19.55,0,0,1-4-3.16,34.46,34.46,0,0,1-3.43-3.86c-3.29-4.58-3.07-6.24-4.89-9.55,1.81-1.41,4.41-2.35,7-5.78a23.91,23.91,0,0,0,4.41-8.48c2-7.36.05-15.78-4-20.32ZM36.15,35.1a3.81,3.81,0,0,1,3.55.07,6.27,6.27,0,0,1,2.07,2.23,4.37,4.37,0,0,1-2.45,5.8,4.44,4.44,0,0,1-5.63-6.11,3.38,3.38,0,0,1,2.46-2ZM25.7,29.76l2.6-2.61a10.37,10.37,0,0,1,2.83,1.92c4.05-1.57,4.34-1,4.41-4.95l4.06.06.64,3.38,4,1.47a11.76,11.76,0,0,1,2.84-1.92l2.57,2.65-.87,1.53a5,5,0,0,1-1.06,1.26c.32.86,1.17,3,1.61,3.93l3.33.56v4.19l-3.39.44-1.51,4a9.84,9.84,0,0,1,1.94,2.82L47,51.08l-1.45-.85a5.47,5.47,0,0,1-1.25-1l-4,1.55L39.66,54l-4.12.1-.41-3.39a14.77,14.77,0,0,1-3.8-1.51,5.75,5.75,0,0,0-1.41.93l-1.62,1-2.58-2.66a10.68,10.68,0,0,1,1.87-2.78c-.19-.66-.57-1.15-.88-1.94-.24-.62-.46-1.53-.73-2.06l-3.3-.5,0-4L26,36.57c.44-1.2,1.25-3.09,1.56-4a8.16,8.16,0,0,1-1.9-2.77Zm39.9,47.7c6.11-1.82,8.66,7.5,2.68,9.29-6.14,1.83-8.88-7.45-2.68-9.29Zm-58.51.06a4.82,4.82,0,0,1,6,3.17,4.87,4.87,0,0,1-3.19,6.06C3.85,88.61.86,79.47,7.09,77.52Z"/></g></g></svg>