<svg xmlns="http://www.w3.org/2000/svg" viewBox="0 0 78.7 78.72"><defs><style>.cls-1{fill:#1a1a18;fill-rule:evenodd;}</style></defs><g id="Layer_2" data-name="Layer 2"><g id="Layer_1-2" data-name="Layer 1"><path class="cls-1" d="M38.26,47.75c-.29-.33-5.67-3.3-6.23-3.62-1.42-.82-4.16-1.73-3.25-3.72.39-.84,4.61-3.4,5.72-4.14,2.52-1.68,4,1.58,2.27,2.76-1,.66-2,1.29-2.91,2l.17.14c1.55,1.12,9.61,5.17,10.31,6.08a1.76,1.76,0,0,1-.76,2.7l-9.73,2.78,2.48,2.53c.72.72,1.9,1.74.75,3.21-1.49,1.91-2.82,3.74-4.27,5.68L31.73,65.6a1.8,1.8,0,1,1-2.54-2.54l3.18-4.24a12.74,12.74,0,0,0,1-1.41l-3-3c-.67-.66-2.74-2.2-1.22-3.77.86-.88,7.7-2.13,9.12-2.87ZM57,66.46c.54-.91,1.22-1.92,1.66-2.81a41,41,0,0,0-3.78-2.24l-1.64,2.9L57,66.46ZM19.84.1A15.66,15.66,0,0,0,15.26,1c-1.85.79-2.24,1.6-.2,2.52,5.78,2.6,20.43.3,14.61-2.42C27.2,0,22.78-.13,19.84.1Zm9.28,13.63,1.1-6.57a25.22,25.22,0,0,1-7.85,1.07,27.9,27.9,0,0,1-6.13-.6c-.51-.11-1.32-.41-1.75-.45.23,1.63.56,3.34.84,5,.22,1.28-.07,1.46,1,1.89a11.33,11.33,0,0,0,2.37.65,23.23,23.23,0,0,0,8.14-.19c.86-.21,1.53-.56,2.24-.77Zm4.3,1.94a15.39,15.39,0,0,0,.9,1.69l5.84,10.35.5.87a3.37,3.37,0,0,0,.49.79l.05.05a24.58,24.58,0,0,0,1.3-2.62c1.32-3,2.77-6,2-9.37-.53-2.36-2-3.17-4.67-3.28a12.9,12.9,0,0,0-3.63.31,8.24,8.24,0,0,0-2.78,1.21ZM3.3,29.74c.44-.37,3.81-6.59,4-7,.43-.77,3.77-6.5,4-7.15a14.27,14.27,0,0,0-2.76-1.15,13.57,13.57,0,0,0-3.62-.32c-2.66.11-4.17.9-4.7,3.25C-.53,20.65.83,24,2.1,27a29.68,29.68,0,0,1,1.2,2.79ZM66,31.91a39.79,39.79,0,0,0,1.21,3.86c.58,1.83,2,2,3,1.2l5.56-4.6c.72-.59,2.3-1.62,2.46-2.61a1.8,1.8,0,0,0-2.65-1.87,5.37,5.37,0,0,0-.73.55l-4.88,4a34.14,34.14,0,0,1-1.28-3.82c-.54-1.7-1.83-2.11-3.07-1.14l-6.2,5.12c-.89.77-1.63,1.17-1.75,2.06-.15,1.12,1.1,3.31,3.46,1.21.3-.27.39-.32.69-.58L64.61,33A11.17,11.17,0,0,1,66,31.91Zm-5.2-11.38a35.21,35.21,0,0,0,1-3.73A15.45,15.45,0,0,1,63,13.16a1.84,1.84,0,0,1,3,.47c.34.83-.41,3-.66,3.87-.39,1.39-1.6,6.69-2.2,7.36-1.37,1.51-3.18-.39-4.64-1.49a9.63,9.63,0,0,0-1.36-1c-.21,1-1.75,6.91-2.15,7.39A1.82,1.82,0,0,1,52,29.26c-.32-.86.42-2.87.67-3.82.35-1.3,1.64-6.76,2.2-7.36,1.74-1.85,4.16,1.55,6,2.45Zm-1.67,49.3,14,8.22a3.6,3.6,0,0,0,5.08-1,3.38,3.38,0,0,0,.22-3,4.43,4.43,0,0,0-.73-1.12c-.17-.17-14.46-8.7-15-8.91l-3.52,5.84ZM6.69,50.25c-1.31-.25-2.52-.65-3.76-.89C3.16,50.72,6.13,60.78,6.52,62c1.31,4.12,2.55,8.27,3.82,12.38.16.52.34,1,.49,1.55.31,1,.2,1,.85,1.21,1.08.3,2.11.56,3.21.78A37.66,37.66,0,0,0,33,77.19c.76-.2.64-.41.87-1.18.16-.52.35-1,.48-1.57a22.87,22.87,0,0,1-9.86-2A23.11,23.11,0,0,1,11.21,56.18a40.59,40.59,0,0,1-.5-5.36c-1.36-.15-2.69-.33-4-.57Zm-4.47-5c1.92,1.07,6.43,1.75,9,2a21.29,21.29,0,0,1,3.13-7.88C19,31.91,27,28.08,36.64,28.8c-.11-.49-2.75-5-3.2-5.78s-3.1-5.33-3.26-5.83a31.89,31.89,0,0,1-3.51,1,26.55,26.55,0,0,1-4.3.33,26.67,26.67,0,0,1-4.21-.31,30.5,30.5,0,0,1-3.64-1c-.1.41-7.06,12.62-7.25,13a55.58,55.58,0,0,0-3.5,6.64,21.51,21.51,0,0,0-1.55,8.51Zm51.3,7.45c.7-11.08-8.05-19.76-18.27-20.47A19.35,19.35,0,1,0,53.52,52.72Z"/></g></g></svg>