<svg xmlns="http://www.w3.org/2000/svg" viewBox="0 0 90.77 90.74"><defs><style>.cls-1{fill:#000003;fill-rule:evenodd;}</style></defs><g id="Layer_2" data-name="Layer 2"><g id="Layer_1-2" data-name="Layer 1"><path class="cls-1" d="M3,86.17V82H87.84c0,2.72.59,5.86-1.64,5.86H4.64A1.66,1.66,0,0,1,3,86.17ZM19.08,24.91H36.64V42.47H19.08V24.91Zm-2.92-1.46v4.39H7.38A1.37,1.37,0,0,0,5.92,29.3V79c-7,0-5.85-1.19-5.85,7.68a4.32,4.32,0,0,0,4,4H86.74a4.32,4.32,0,0,0,4-4V80.5c0-2-2.74-1.46-5.85-1.46V32.22H82V79H8.84V30.76h7.32v1.46c-3.12,0-5.85-.58-5.85,1.47V76.11a1.37,1.37,0,0,0,1.46,1.47H79.06a1.38,1.38,0,0,0,1.47-1.47V33.69H77.6v41H13.23V35.15h2.93v8.78a1.38,1.38,0,0,0,1.46,1.46H38.1a1.37,1.37,0,0,0,1.46-1.46V35.15H52.73V32.22H39.56V30.76H52.73V27.84H39.56c0-3.12.59-5.86-1.46-5.86H17.62A1.38,1.38,0,0,0,16.16,23.45Z"/><path class="cls-1" d="M59.13,8.27,60.92,6.4c1,.73,1.17,1.5,2.42,1.5.76,0,2.21-1,3-1.25,2.58-.93,2.53-.13,2.53-3.68h2.93c0,3.33-.13,2.8,2.4,3.63,1.35.44,2,1.3,3.45,1.3.59,0,1.53-1.14,2-1.46l1.87,1.79c-.73,1-1.5,1.17-1.5,2.42a16.06,16.06,0,0,0,1.23,3c1,2.56.15,2.51,3.71,2.51v2.93c-3.4,0-2.76-.1-3.66,2.38C80.77,22.78,80,23.61,80,24.91c0,.59,1.14,1.53,1.46,2l-1.78,1.87c-1-.73-1.18-1.5-2.42-1.5a15.85,15.85,0,0,0-3,1.23c-2.56,1-2.51.15-2.51,3.7H68.82c0-3.33.13-2.79-2.4-3.63-1.34-.44-2-1.3-3.45-1.3-.59,0-1.53,1.14-2,1.46L59.09,27c.73-1,1.5-1.18,1.5-2.43,0-.76-1-2.21-1.25-2.94-.93-2.59-.13-2.54-3.68-2.54V16.13c3.33,0,2.8.13,3.63-2.4.44-1.34,1.3-2,1.3-3.45,0-.59-1.14-1.53-1.46-2ZM65.9,3.7a6.53,6.53,0,0,0-2.38.91C61,.89,59.68,3.24,57.9,5c-2,2-4.29,3.33-.6,5.81a6.46,6.46,0,0,0-.91,2.38c-4.35,0-3.66-.6-3.66,7.31,0,1.83,1.88,1.46,3.66,1.46a6.39,6.39,0,0,0,.91,2.38c-3.72,2.49-1.37,3.84.41,5.62,2,2,3.33,4.3,5.81.6a6.35,6.35,0,0,0,2.38.91c0,4.36-.6,3.66,7.31,3.66,1.83,0,1.46-1.88,1.46-3.66a6.23,6.23,0,0,0,2.38-.91c2.49,3.72,3.84,1.37,5.63-.41,2-2,4.29-3.33.59-5.81A6.23,6.23,0,0,0,84.18,22c4.36,0,3.66.6,3.66-7.31,0-1.83-1.88-1.46-3.66-1.46a6.29,6.29,0,0,0-.91-2.38C87,8.34,84.64,7,82.86,5.21c-2-2-3.33-4.3-5.81-.6a6.39,6.39,0,0,0-2.38-.91c0-4.36.6-3.66-7.31-3.66C65.53,0,65.9,1.92,65.9,3.7Z"/><path class="cls-1" d="M19.08,51.24H36.64V68.8H19.08V51.24Zm-2.92-1.46V70.26a1.37,1.37,0,0,0,1.46,1.46H38.1a1.37,1.37,0,0,0,1.46-1.46V49.78a1.37,1.37,0,0,0-1.46-1.46H17.62A1.38,1.38,0,0,0,16.16,49.78Z"/><path class="cls-1" d="M57.12,48.32a9.63,9.63,0,0,1,.67-3c3.06-7.07,14-4.82,14,3a11.28,11.28,0,0,1-.67,3A7.31,7.31,0,0,1,61.45,55a7.48,7.48,0,0,1-4.33-6.64ZM63,37.71c0,.87-1.63.28-4.75,2.38L57.27,39l-2.12,2,1,1.1c-3.12,4.82-.4,4.71-3.43,4.71v2.93c2.28,0,1.15-.26,2.19,2.38a18.12,18.12,0,0,0,1.29,2.37l-1.07.95,2,2.12,1.1-1a13.79,13.79,0,0,0,3.56,1.66C63.05,58.55,63,58,63,60H65.9c0-2.28-.26-1.15,2.38-2.19a19.38,19.38,0,0,0,2.37-1.28l.95,1.06,2.2-2.12-1.1-1a11.16,11.16,0,0,0,1.19-2.21c1.12-2.82,0-2.51,2.25-2.51V46.85c-3,0-.3,0-3.48-4.75l1.07-1L71.61,39l-1,1.1a12,12,0,0,0-2.21-1.19c-2.82-1.12-2.51,0-2.51-2.25H63Z"/><path class="cls-1" d="M63,17.6c0-7.82,10.91-10.06,14-3,3.25,7.54-6.24,13.72-11.81,8.15A8,8,0,0,1,63,17.6Zm-2.92-.55v1.09a10.2,10.2,0,0,0,9.69,9.7h1.09a10.21,10.21,0,0,0,9.7-9.7V17.05a10.2,10.2,0,0,0-9.7-9.69H69.74A10.19,10.19,0,0,0,60.05,17.05Z"/><polygon class="cls-1" points="20.87 55.22 25.71 59.98 20.87 64.92 22.97 66.93 27.82 62.17 32.66 66.92 34.85 64.82 30.01 60.06 34.85 55.13 32.66 53.03 27.91 57.87 23.06 53.12 20.87 55.22"/><path class="cls-1" d="M61.51,48.5a3,3,0,0,1,2.78-3.06c3.66-.26,4.17,5.49.29,5.76a3.06,3.06,0,0,1-3.07-2.7ZM58.58,48c0,3.8,2.69,6.22,5.31,6.22a5.7,5.7,0,0,0,4.71-1.69,5.86,5.86,0,0,0-4.53-10A5.78,5.78,0,0,0,58.58,48Z"/><path class="cls-1" d="M26.4,36.8a24.05,24.05,0,0,1-3.11-4c-.84.45-1.57,1.11-2.38,1.65.19.79,1.87,2.8,2.46,3.58.47.62.8,1,1.25,1.67,2.46,3.33,3.46,0,6.31-4.55L35,28.57a9,9,0,0,0-2.74-1.47,3,3,0,0,1-.62,1.21c-.32.48-.45.76-.77,1.25Z"/></g></g></svg>