<svg xmlns="http://www.w3.org/2000/svg" viewBox="0 0 57.2 57.2"><defs><style>.cls-1,.cls-2{fill:#c5c6c6;}.cls-1{fill-rule:evenodd;}</style></defs><g id="Layer_2" data-name="Layer 2"><g id="Layer_1-2" data-name="Layer 1"><path class="cls-1" d="M0,27.88a23.09,23.09,0,0,0,.6,6.31,10,10,0,0,0,2.63,4.33,9.22,9.22,0,0,0,2.41,1.79,10,10,0,0,0,5.08,1.16,9.83,9.83,0,0,0,6.22-2.37l.64-.59a11.11,11.11,0,0,0,2-2.87,10.1,10.1,0,0,0,1-4V15.73H15.44V31.08a5.62,5.62,0,0,1-7.12,5.59,5.71,5.71,0,0,1-3.11-2.18,5.5,5.5,0,0,1-1-2.56,23.85,23.85,0,0,1,.38-8.8,26,26,0,0,1,3.14-7.59,22,22,0,0,1,1.6-2.26c.7-.85,1.43-1.64,2.2-2.42a26.84,26.84,0,0,1,3.88-3,24.44,24.44,0,0,1,7.6-3.18,24.79,24.79,0,0,1,16.69,2c1,.51,1.51.87,2.41,1.4.19.11.3.21.48.33s.6.42.89.64c.14.1.27.22.42.34a25.11,25.11,0,0,1,2,1.81,24.48,24.48,0,0,1,5,7.28,22.67,22.67,0,0,1,.86,2.19,24.58,24.58,0,0,1,0,15.76,24.87,24.87,0,0,1-1.37,3.26,17.81,17.81,0,0,1-1.09,2c-.11.16-.19.3-.3.47s-.22.29-.33.47a17.89,17.89,0,0,1-2,2.55L46,46l-.38.38a23.06,23.06,0,0,1-2.07,1.75l-1.82,1.28a25.21,25.21,0,0,1-7.59,3.17,28.25,28.25,0,0,1-4,.6l-1.51,0a24.85,24.85,0,0,1-13.58-4.06A20.65,20.65,0,0,1,12,46.75l-.4-.36a3.92,3.92,0,0,0-.42-.4L8.38,48.8a8.85,8.85,0,0,0,1.31,1.28L12.15,52l3.26,2,1.78.84.59.26A27,27,0,0,0,28,57.2a28.73,28.73,0,0,0,7.47-.82,30.12,30.12,0,0,0,5.16-1.81,28.17,28.17,0,0,0,6.61-4.25l.71-.62a25.93,25.93,0,0,0,1.94-2,26.16,26.16,0,0,0,3.5-4.79c.4-.75.83-1.51,1.19-2.29s.69-1.61,1-2.48a30.44,30.44,0,0,0,1.37-5.59,28.94,28.94,0,0,0,.27-3V27.65a29.14,29.14,0,0,0-.81-5.87c-.12-.44-.22-.92-.37-1.35a25.25,25.25,0,0,0-.91-2.57,36.74,36.74,0,0,0-1.71-3.53l-.65-1.07a21.34,21.34,0,0,0-2.22-3c-.09-.11-.1-.14-.19-.24L47.29,7A1.84,1.84,0,0,0,47,6.72a29.4,29.4,0,0,0-5.19-3.48c-.38-.19-.78-.41-1.18-.58l-2.47-1A28.1,28.1,0,0,0,29.75,0h-2.3a27,27,0,0,0-2.88.26,29.65,29.65,0,0,0-8,2.39c-.8.39-1.52.77-2.28,1.2a23.47,23.47,0,0,0-3.11,2.09l-.48.37a31.31,31.31,0,0,0-3.15,3l-.41.46A29.26,29.26,0,0,0,3.82,14.3a21.67,21.67,0,0,0-1.2,2.29A28.15,28.15,0,0,0,0,27.88Z"/><path class="cls-1" d="M35.75,22.5a7,7,0,0,0,1,4,8.71,8.71,0,0,0,.93,1.26,7.07,7.07,0,0,0,.56.54l2.26,2.08c1,1,2.13,1.73,2.13,3.35A3.76,3.76,0,0,1,42.32,35a2.92,2.92,0,0,1-.67.94,3.09,3.09,0,0,1-2.33.92H35.75v4.58h4.91a7.51,7.51,0,0,0,6.08-3.64,7.66,7.66,0,0,0,1-3.46,7.3,7.3,0,0,0-1.38-4.68A10.67,10.67,0,0,0,44.78,28c-.22-.17-.34-.35-.54-.52l-1.14-1c-.92-.93-2.21-1.65-2.21-3.28a2.91,2.91,0,0,1,3-2.86h2.43V15.73H42.61a6.94,6.94,0,0,0-2.73.65,7.09,7.09,0,0,0-3.43,3.38A6.86,6.86,0,0,0,35.75,22.5Z"/><rect class="cls-2" x="25.74" y="15.73" width="5.72" height="25.74"/></g></g></svg>