<svg xmlns="http://www.w3.org/2000/svg" viewBox="0 0 64.22 64.29"><defs><style>.cls-1{fill:#c5c6c6;fill-rule:evenodd;}</style></defs><g id="Layer_2" data-name="Layer 2"><g id="Layer_1-2" data-name="Layer 1"><path class="cls-1" d="M50.78,20.41a7.77,7.77,0,0,1,2.41.08c2.07.55,2.35,3.31,2.41,5.22a18.06,18.06,0,0,1-.35,4.73c-.38,1.43-1,2.31-2.59,2.48a8,8,0,0,1-2.4-.09,2.43,2.43,0,0,1-1.51-1c-1.18-1.79-1.07-6.91-.61-8.93a2.64,2.64,0,0,1,2.64-2.45Zm.07-5.94a13.38,13.38,0,0,0-7.61,2.43A10,10,0,0,0,42,18a10.07,10.07,0,0,0-2.25,3.93,15.9,15.9,0,0,0,.46,10.59c2.17,4.67,7.12,6.55,12.26,6.29,7.59-.37,12.15-5,11.72-13a12.64,12.64,0,0,0-1.72-6,10.13,10.13,0,0,0-3-3.2,12.3,12.3,0,0,0-3.14-1.51A15.73,15.73,0,0,0,50.85,14.47Z"/><path class="cls-1" d="M21,29.71H16.43v8.62h5.19V36.54c.17.07.44.27.64.38a14.55,14.55,0,0,0,5.42,1.86c3.29.39,7.27-.55,9.32-3a7.07,7.07,0,0,0,1.1-6.52,6.64,6.64,0,0,0-1.6-2.55c-2.24-2.32-5.59-3-8.61-3.85-1.06-.32-2.18-.6-3.21-1-2.86-1-1-2.77,3.27-1.84a9.81,9.81,0,0,1,2.95,1.2A7.16,7.16,0,0,1,32.84,23c.07.1.13.22.25.27h4.58V15.16h-5v1.46c-.3-.14-.75-.47-1.32-.73s-.95-.41-1.47-.59a15.06,15.06,0,0,0-7.3-.53,9.44,9.44,0,0,0-3.05,1.11,6.57,6.57,0,0,0-2.15,2,6.76,6.76,0,0,0-1.09,3.06,6.93,6.93,0,0,0,.45,3.59,7.3,7.3,0,0,0,2.32,2.86,14.57,14.57,0,0,0,5,2.21c1.4.42,5.25,1.49,6.31,2,.42.2,1.21.5.7,1a2.9,2.9,0,0,1-1.45.64A8.77,8.77,0,0,1,22,30.88c-.08-.09-.17-.16-.25-.26A8.9,8.9,0,0,0,21,29.71Z"/><path class="cls-1" d="M0,20.47H3.41V32.66H0v5.69c4.92,0,9.94,0,14.87,0V32.67h-3.4V20.47h3.4V14.78H0Z"/><path class="cls-1" d="M25,51.59a6.26,6.26,0,0,1,.6-.46,5.73,5.73,0,0,1,.64-.39,7.76,7.76,0,0,1,1.46-.64,11.56,11.56,0,0,1,7.24,0,8.15,8.15,0,0,1,1.47.64,6.72,6.72,0,0,1,1.23.85l-.18.07a26.22,26.22,0,0,1-9.5.52,18.65,18.65,0,0,1-3-.59Zm12.55-1.4-.2.16.63.48c.21.17.39.36.58.52a23.21,23.21,0,0,0,4.25-1.66c.68-.34,1.27-.68,1.9-1a17.83,17.83,0,0,0,1.78-1.21s0,0,0,0l-.33-.25a21.86,21.86,0,0,0-2.76-1.65c-.19.11-1,1-1.37,1.32l-.73.63a45.77,45.77,0,0,1-3.74,2.72Zm-20-3.7-1.37.95a24.57,24.57,0,0,0,3.66,2.24A23.47,23.47,0,0,0,24,51.35l.86-.74.06,0,.08-.08a3.27,3.27,0,0,0-.41-.28,39,39,0,0,1-5-3.85c-.17-.16-.54-.59-.69-.69-.49.24-1,.54-1.44.82Zm2.22-1.22a6.65,6.65,0,0,0,.84.84c.71.62,1,.88,1.82,1.51.33.26.63.48,1,.71.67.47,1.29.9,2,1.36.87.57.12.28,2.27-.42L25.69,46.6c-.35-.52-1-1.53-1.29-2.11a8.2,8.2,0,0,1-.4-.78,19.88,19.88,0,0,0-3.26,1.1c-.3.12-.77.38-1,.46Zm14.93,3.87c.06,0,1,.37,1.21.45s.38.18.56.26.37-.13.53-.24c.69-.44,1.37-.91,2-1.37a23.64,23.64,0,0,0,3.63-3.1,23,23,0,0,0-4.39-1.54,38.09,38.09,0,0,1-3.54,5.54ZM24.79,43.5a26.05,26.05,0,0,1,5.91-.73v5.34c0,.65.15.6-.41.65a17.89,17.89,0,0,0-1.85.27c-.3-.28-1.7-2.31-1.94-2.67a24,24,0,0,1-1.71-2.86Zm6.71-.75a29.68,29.68,0,0,1,5.73.62l.08,0s0,0,0,0l0,0a31,31,0,0,1-2.22,3.62c-.39.58-.83,1.14-1.22,1.69-.17.23-.13.23-.46.17-.8-.15-1.22-.12-2-.2v-6Zm0-1.71h-.79a3.13,3.13,0,0,1,0,.92,26.51,26.51,0,0,0-4.78.48c-.42.08-1.09.27-1.46.3a6.42,6.42,0,0,1-.4-.83,8.22,8.22,0,0,0-.39-.88h-.83a6.25,6.25,0,0,0,.38,1,10.27,10.27,0,0,1,.43,1,23.52,23.52,0,0,0-3.44,1.21c-.25.11-.87.43-1.08.48-.22-.29-.51-.56-.76-.86-.63-.79-1.2-1.46-1.83-2.29C16,40.9,16.38,41,15.17,41a44.31,44.31,0,0,0,2.77,3.53l.31.36c.08.09.06,0,.11.15a21.37,21.37,0,0,0-2.23,1.35,8.63,8.63,0,0,1-.72.5c-.28-.2-.53-.43-.79-.64l-.75-.67c-.28-.29-.35-.28-.73-.7-.18-.2-.35-.31-.7-.71l-.67-.75c-.22-.27-.43-.49-.65-.77l-.91-1.22A4,4,0,0,0,9.9,41H9a25.41,25.41,0,0,0,2.28,3l1,1.13a3.33,3.33,0,0,1,.28.25,10.49,10.49,0,0,0,.82.81c.17.16.4.33.57.5a29.58,29.58,0,0,0,3.78,2.71,26.56,26.56,0,0,0,21.1,2.63,26.26,26.26,0,0,0,8.56-4.36,26.65,26.65,0,0,0,2.34-2c.1-.09.16-.19.26-.28l.26-.27a3.33,3.33,0,0,0,.28-.25l1.74-2A20.07,20.07,0,0,0,53.6,41h-.93c-.32.38-.76,1.1-1.21,1.63l-.32.39c-.1.14-.21.24-.33.38s-.22.25-.33.38-.81.86-1,1.09-.23.25-.35.36l-1.94,1.66-1.57-1.07c-.28-.16-.53-.33-.82-.49l-.85-.48L45.48,43c.25-.33.5-.63.76-1A10.3,10.3,0,0,0,47,41a8.48,8.48,0,0,0-.87,0c-.17,0-.29.25-.46.46L44.44,43c-.14.18-.27.35-.41.51s-.26.31-.43.49l-.42.51-2.24-.9a22.47,22.47,0,0,0-2.39-.73c.12-.41.63-1.3.77-1.84h-.83l-.73,1.62c-.35,0-1.1-.21-1.48-.28s-1-.16-1.52-.22S33.7,42,33.16,42,32,42,31.5,41.94Z"/><path class="cls-1" d="M31.5,4.27c.4,0,.77,0,1.17-.07s.74-.13,1.11-.17a6.82,6.82,0,0,0,.49.69,34.66,34.66,0,0,1,3.11,4.86,25.91,25.91,0,0,1-5.88.65v-6ZM24.8,9.48A12.53,12.53,0,0,1,25.61,8c.28-.46.61-1,.89-1.38C26.9,6,28,4.53,28.42,4c.28,0,.76.14,1.09.19s.87,0,1.19.12v6a26,26,0,0,1-5.9-.74Zm9.83-5.64.95,1.31a32.32,32.32,0,0,1,2.59,4.23,22.78,22.78,0,0,0,4.38-1.54,4.91,4.91,0,0,1-.38-.4A4.36,4.36,0,0,1,41.74,7a5.52,5.52,0,0,0-.43-.38c-.13-.13-.32-.27-.46-.4A44.56,44.56,0,0,0,37,3.39c-.62-.41-.38-.3-1.08,0-.19.08-1.19.42-1.24.46ZM19.7,7.72c.32.12.68.3,1,.44A21.46,21.46,0,0,0,22.83,9,7.93,7.93,0,0,0,24,9.28a20.36,20.36,0,0,1,1.68-2.87l1.39-2c.16-.23.35-.45.49-.67-.07,0-1-.39-1.17-.48-.72-.33-.43-.37-1.09,0A42,42,0,0,0,21,6.47,10.39,10.39,0,0,0,19.7,7.72ZM37.29,2.64l1.59,1.09A31.89,31.89,0,0,1,42,6.13c.12.12.24.18.36.32l1,1c.52-.31.9-.46,1.54-.85l.74-.47a5.57,5.57,0,0,0,.71-.5,20.33,20.33,0,0,0-2.06-1.35c-.75-.42-1.44-.79-2.26-1.18A26.36,26.36,0,0,0,38.91,2c-.38-.12-.48-.2-.64-.08s-.29.26-.46.4-.34.23-.52.37Zm-21,3c.06.11.19.16.29.24A18.05,18.05,0,0,0,19,7.32a17.54,17.54,0,0,1,1.74-1.67l1.15-.91c.94-.71,1.8-1.32,2.79-2,.1-.08.31-.2.4-.28l-.83-.69A13.76,13.76,0,0,0,22,2.53,25.83,25.83,0,0,0,17.14,5a9.25,9.25,0,0,0-.88.62Zm8.89-4.1A21.38,21.38,0,0,1,28,1a25.6,25.6,0,0,1,9.38.53,5.82,5.82,0,0,1-1.2.8,10.7,10.7,0,0,1-4.93,1.13,9.87,9.87,0,0,1-6.13-1.92ZM9,12.17h.95a20.52,20.52,0,0,1,1.23-1.68c.22-.28.43-.52.66-.79A25.16,25.16,0,0,1,14,7.5a20.18,20.18,0,0,1,1.59-1.32l1.37.91a15.52,15.52,0,0,0,1.44.83L15,12.16l1,0c.24-.34,2.71-3.53,3.15-3.86A25.87,25.87,0,0,0,23.62,10c-.09.35-.78,1.61-.9,2.16h.85c.12-.33.71-1.72.85-1.94.46.07,1,.21,1.46.31A30,30,0,0,0,29,11c.44,0,1.32,0,1.68.1v1.12h.8V11.05C32,11,32.63,11,33.16,11a38.57,38.57,0,0,0,4.6-.66l.8,1.84h.85c-.14-.56-.77-1.7-.86-2.06A22.36,22.36,0,0,0,42,9c.27-.11.86-.41,1.1-.47.21.19,1.38,1.61,1.56,1.83s1.39,1.85,1.49,1.87h.93c-.29-.52-2.38-3.12-2.81-3.59-.13-.14-.29-.36-.41-.48L47,6.18c.22.11,1.41,1.15,1.6,1.32.36.31,1.57,1.52,1.8,1.81s.65.73,1,1.19c.19.25,1.07,1.4,1.22,1.68h1a4.14,4.14,0,0,0-.42-.64l-.9-1.23c-.08-.12-.15-.19-.23-.3a31.07,31.07,0,0,0-2.33-2.57l-.29-.25-.84-.76c-.17-.16-.39-.33-.57-.48A26.56,26.56,0,0,0,17.74,3.71a30.3,30.3,0,0,0-2.57,1.74A27.81,27.81,0,0,0,12.3,8c-.17.18-.33.39-.51.56A26.6,26.6,0,0,0,9,12.17Z"/><path class="cls-1" d="M3.13,55.56a1.8,1.8,0,0,1,2.11,1.83c.08,1.17-.33,2.18-1.62,2.34a1.77,1.77,0,0,1-2.17-1.85C1.4,56.6,2,55.69,3.13,55.56Zm2.31,4.15c-.08,1.12-.38,2.62-1.28,3.25a1.62,1.62,0,0,1-2.63-1.25H.31a2.44,2.44,0,0,0,2.21,2.53,3,3,0,0,0,3.23-1.42c1.18-1.89,1.36-5.87-.14-7.46A3.34,3.34,0,0,0,2,54.69c-2.3,1-2.51,4.91,0,5.9A3.57,3.57,0,0,0,4,60.7a2.22,2.22,0,0,0,1.36-.93Z"/><path class="cls-1" d="M45.07,55.56c2-.28,2.19,2.07,2.21,3.52s0,3.82-1.73,4.09c-1.89.29-2.26-1.9-2.27-3.55s.17-3.83,1.79-4.06Zm3.49,4.34c.16-2.55-.41-5.07-2.75-5.4-2.71-.39-3.68,1.89-3.81,4.33s.46,5.07,2.72,5.42a2.88,2.88,0,0,0,2.92-1.16A6.31,6.31,0,0,0,48.56,59.9Z"/><path class="cls-1" d="M10.82,55.57c2-.32,2.21,2,2.23,3.52s0,3.8-1.73,4.08c-1.89.3-2.26-1.91-2.27-3.55,0-1.39.06-3.78,1.77-4Zm3.51,4.33c.16-2.54-.41-5.07-2.75-5.4-2.71-.38-3.68,1.87-3.81,4.33s.47,5.08,2.72,5.42C13.2,64.65,14.17,62.32,14.33,59.9Z"/><path class="cls-1" d="M20.65,59.9c-.07,1.16-.18,2.58-1.27,3.12a1.8,1.8,0,0,1-1.26.1c-1.39-.43-1.54-2.68-1.45-4.32s.55-3.65,2.51-3.2c.79.18,1.08.83,1.27,1.64a9.8,9.8,0,0,1,.2,2.66Zm-2.47-5.41c-2.29.31-2.91,2.89-2.82,5.38s1.09,4.79,3.79,4.38c2.26-.35,2.86-2.9,2.8-5.38C21.89,56.55,21,54.12,18.18,54.49Z"/><path class="cls-1" d="M57.58,59.77l1,.06A2.24,2.24,0,0,1,59.75,59a2.11,2.11,0,0,1,2.56,3A2,2,0,0,1,61.38,63c-1,.44-2.61.21-2.88-1.22,0-.23,0-.22-.27-.22s-.69,0-1,0A2.69,2.69,0,0,0,58,63.44a4,4,0,0,0,4.12.46,2.93,2.93,0,0,0,1.29-1.38A3.14,3.14,0,0,0,59.7,58a4.15,4.15,0,0,0-.91.45l.4-2.63h4.06V54.63h-5C58.19,55.12,57.55,59.59,57.58,59.77Z"/><path class="cls-1" d="M34.61,57.85h1.22A2.58,2.58,0,0,1,36.46,56a2.13,2.13,0,0,1,2-.39,1.78,1.78,0,0,1,.9,2.76c-.56.82-2.4,1.56-3.33,2.27A4,4,0,0,0,34.37,64c2.13,0,4.47,0,6.57,0V62.89H35.72c.34-1.87,3.6-2.39,4.77-4a2.76,2.76,0,0,0,.39-2.36c-.49-1.76-2.06-2.28-3.73-2.05C35.26,54.74,34.65,56.14,34.61,57.85Z"/><path class="cls-1" d="M50.47,57.25h2.25V64H54V54.5h-1a2,2,0,0,1-.82,1.43,3,3,0,0,1-.83.27c-.62.13-.93,0-.93.26Z"/><path class="cls-1" d="M23.85,57.25h2.24c.05.67,0,5.69,0,6.78h1.28V54.5h-.95c-.33,1.49-1,1.67-2.57,1.82v.92Z"/><polygon class="cls-1" points="31.66 64.03 33.06 64.03 33.06 62.71 33.05 62.57 31.66 62.57 31.66 62.71 31.66 64.03"/><polygon class="cls-1" points="31.66 58.42 33.06 58.42 33.05 56.97 31.67 56.97 31.66 58.42"/><path class="cls-1" d="M30.67,42a3.13,3.13,0,0,0,0-.92h.79a2,2,0,0,0-.81,0Z"/></g></g></svg>