<svg xmlns="http://www.w3.org/2000/svg" viewBox="0 0 63.86 59.85"><defs><style>.cls-1{fill:#c5c6c6;fill-rule:evenodd;}</style></defs><g id="Layer_2" data-name="Layer 2"><g id="Layer_1-2" data-name="Layer 1"><path class="cls-1" d="M47,30.51A17.21,17.21,0,0,1,42.8,41.22a17.49,17.49,0,0,1-9.48,5.49,17.12,17.12,0,1,1,4.56-31.94C39.1,15.42,41.56,17,42,18L31.79,27.17l-5.85-7.51A24,24,0,0,0,24,17.26l-7,6.26a28.23,28.23,0,0,0-2.26,2.09c.26.7,11.78,15.4,13.48,17.62l1.44,1.88c.3.38.13.28.51.49a5.75,5.75,0,0,0,1.08-.93l5.3-4.77c2-1.72,9.18-8.52,10.42-9.39ZM57.54,21c-.43.16-8.89,8-9.63,8.56-.17,9.42-6,15.84-13.76,17.8a18,18,0,1,1,6.48-31.93,23.21,23.21,0,0,0,2.27,1.81,18.74,18.74,0,0,1,1.92-1.81c1.41-1.26,5-4.38,6.09-5.54-.72-1.47-5.7-4.81-7.58-5.79a29.06,29.06,0,1,0-23.74,53A29.54,29.54,0,0,0,42,56.37a29.1,29.1,0,0,0,16.8-29.86A23.82,23.82,0,0,0,57.54,21Zm2.31,8.6a29.68,29.68,0,0,0-.47-5c-.13-.66-1.05-4.12-1-4.21a67.63,67.63,0,0,1,5.52-5.14A19.33,19.33,0,0,0,62,12.67c-.68-.9-1.22-1.57-1.89-2.43L56.25,5.3c-.83.32-3.59,3.32-4.61,4-.79-.42-1.28-1.27-2-1.88s-1.31-1.11-2.08-1.66A29.68,29.68,0,0,0,29.49,0C13.64,0,0,13.55,0,29.35V30.5C0,46.34,13.68,59.85,29.49,59.85h1c15.71,0,29.34-13.6,29.35-29.34Z"/><polygon class="cls-1" points="12.82 44.21 14.42 45.3 16.13 44.41 15.59 46.26 16.96 47.61 15.04 47.67 14.17 49.4 13.52 47.58 11.62 47.3 13.14 46.12 12.82 44.21"/><path class="cls-1" d="M9.87,35.75c.08.39.16.81.2,1.2h0a2.3,2.3,0,0,0-2.48-.21,2.28,2.28,0,0,0-1.38,3.1A2.37,2.37,0,0,0,9.5,41.06a2.29,2.29,0,0,0,1.47-3,.93.93,0,0,1-.06-.34,20.32,20.32,0,0,0-.12-2.06l-.92,0Zm.2,2.51c.29.68-.19,1.37-1.06,1.74s-1.7.24-2-.46.22-1.38,1.05-1.73,1.71-.25,2,.44Zm-5.32-3,2.75-.13C9.06,35,9.71,34.26,9.66,33s-.82-2-2.34-1.94l-2.76.13.06,1.11,2.82-.14c.87,0,1.3.26,1.32.85s-.38.91-1.24.95l-2.82.13,0,1.11Zm3.48-7.68,1.3-.2.17-1.18L4.61,27l-.2,1.44L9.07,30.6l.16-1.14L8,28.94l.2-1.4Zm-1,1.13-1-.45-.91-.35v0l1-.1,1.08-.16-.15,1.08Zm2.64-3.16.78-3-.9-.24-.5,1.89-3.85-1-.28,1.07,4.75,1.26ZM6.46,19.87,10.91,22l.48-1L6.93,18.87l-.47,1Zm5.91-.59L9,17.19l-.7,1.13-.79-.49,2-3.22.8.49-.71,1.14L13,18.33l-.59,1ZM15.84,15l-1.37-1.53-.7-3.22-.94.83.42,1.22c.13.36.23.65.35,1h0c-.3-.17-.56-.29-.91-.45l-1.16-.55-.95.85,3.1,1.13L15,15.7l.83-.74Zm5.39-4.77a2.75,2.75,0,0,1-.75.58,1.47,1.47,0,0,1-2.14-.69A1.49,1.49,0,0,1,19,7.9a2.54,2.54,0,0,1,.92-.27l-.2-.88a2.88,2.88,0,0,0-1.18.37,2.49,2.49,0,0,0-1.17,3.55,2.35,2.35,0,0,0,3.43,1,3.4,3.4,0,0,0,1-.77l-.55-.71Zm-.14-4.26,1.06-.31.53,1.83,1.76-.51-.53-1.82L25,4.81l1.36,4.73-1.06.3-.57-2L23,8.38l.56,2-1.06.31L21.09,5.93Zm9.06.35-1.81.08,0-1,1.91-.08,0-.91-3,.12.2,4.92,3.13-.13,0-.91-2,.08-.05-1.17,1.81-.07,0-.91Zm4.63,2.45a2.9,2.9,0,0,1-1,0A1.47,1.47,0,0,1,32.46,7a1.49,1.49,0,0,1,1.75-1.44,2.42,2.42,0,0,1,.91.3L35.45,5a3,3,0,0,0-1.18-.36,2.51,2.51,0,0,0-3,2.27,2.35,2.35,0,0,0,2.26,2.77,3.1,3.1,0,0,0,1.28-.07l-.06-.88Zm.78,1.2,1,.37.53-1.52.57-.35.43,2.41,1.22.43L38.68,8l2.23-1.43-1.29-.46L38,7.32a6.25,6.25,0,0,0-.5.4h0l.73-2-1-.37Z"/><path class="cls-1" d="M24.26,53.41l0,1.31,1.15.31-.19-5.11-1.39-.38-2.72,4.32,1.1.3L22.91,53l1.35.37Zm-1-1.12.56-.92.45-.86h0c0,.29,0,.67,0,1l0,1.08-1-.28Zm4.6,3,1.09,0L29,53.57a1.35,1.35,0,0,0,.37,0A2.36,2.36,0,0,0,31,53.15,1.55,1.55,0,0,0,31.49,52,1.41,1.41,0,0,0,31,50.87a2.32,2.32,0,0,0-1.49-.45,8.68,8.68,0,0,0-1.49.06l-.15,4.81Zm1.22-4a2.2,2.2,0,0,1,.45,0c.56,0,.86.3.84.75s-.38.77-1,.76l-.37,0,.05-1.44ZM34,55.17l1.07-.24-.39-1.71a1.9,1.9,0,0,0,.37,0,2.35,2.35,0,0,0,1.44-.86,1.53,1.53,0,0,0,.17-1.23,1.4,1.4,0,0,0-.75-1,2.29,2.29,0,0,0-1.54-.05,9.39,9.39,0,0,0-1.44.43L34,55.17ZM34.16,51a1.87,1.87,0,0,1,.44-.14c.54-.12.9.07,1,.51s-.18.85-.75,1a1.11,1.11,0,0,1-.37,0L34.16,51Zm7.48,1.69a2.3,2.3,0,0,0,.88-3.39,2.26,2.26,0,0,0-3.21-1.07,2.36,2.36,0,0,0-.87,3.37,2.28,2.28,0,0,0,3.2,1.1Zm-.38-.78c-.65.35-1.38-.07-1.82-.88s-.41-1.66.26-2,1.39.11,1.81.88.41,1.66-.25,2ZM45.81,50l-3.18-3.61a9.08,9.08,0,0,1,1-1.06,2.4,2.4,0,0,1,1.44-.74,1.17,1.17,0,0,1,1,.46,1.27,1.27,0,0,1,.14,1.46l0,0a1.22,1.22,0,0,1,1.09.25,13.32,13.32,0,0,0,1.21.78l-.85.75a7.2,7.2,0,0,1-1-.64c-.51-.37-.77-.35-1.12-.06l-.24.22,1.27,1.45-.82.72ZM44,46.2l.88,1,.33-.29c.41-.36.48-.78.19-1.1s-.67-.3-1.05,0a2.52,2.52,0,0,0-.35.36Zm7.56-2.58-3.25-4-.63,1,1.43,1.64c.38.44.79.88,1.22,1.3h0c-.57-.22-1.12-.39-1.71-.56l-2.06-.6-.64,1,5,1.29.69-1.09Zm0-7.14.85.26-.53,1.72L53,38.8l.59-1.92.87.27-.92,3-4.66-1.44.89-2.87.86.26L50,37.89l1,.3.53-1.71ZM55,34.6a10.31,10.31,0,0,0,.2-1.24,3.53,3.53,0,0,0-.4-2.31,2.51,2.51,0,0,0-1.88-1,2.19,2.19,0,0,0-1.93.63,3.19,3.19,0,0,0-.71,1.94,8.56,8.56,0,0,0,0,1.49L55,34.6Zm-3.87-1.5a2.15,2.15,0,0,1,0-.5,1.4,1.4,0,0,1,1.7-1.39,1.52,1.52,0,0,1,1.52,1.84,1.91,1.91,0,0,1-.06.37Z"/></g></g></svg>