<svg xmlns="http://www.w3.org/2000/svg" viewBox="0 0 68.42 48.86"><defs><style>.cls-1{fill:#c5c6c6;fill-rule:evenodd;}</style></defs><g id="Layer_2" data-name="Layer 2"><g id="Layer_1-2" data-name="Layer 1"><path class="cls-1" d="M41.51,24.4a25.06,25.06,0,0,0,3.66,12.88,24.4,24.4,0,0,0,4.08,5L50,43a24.72,24.72,0,0,0,4.47,3,24.27,24.27,0,0,0,10.78,2.85L68,48.8c.26,0,.21,0,.46,0V41.39l-1.71.12a17.06,17.06,0,0,1-7.15-1.24,16.49,16.49,0,0,1-4.11-2.39L54,36.59a21.34,21.34,0,0,1-1.74-2,16.32,16.32,0,0,1-2-3.57c-.2-.48-.33-.87-.5-1.38a7,7,0,0,1-.38-1.5H63.57V20.75H49.32c0-1.26,1.51-4.3,2.11-5.3l1.13-1.6.44-.53,1.34-1.4a16.41,16.41,0,0,1,3.23-2.36c.23-.12.36-.21.58-.32a14,14,0,0,1,1.29-.6A18.24,18.24,0,0,1,67.63,7.4c.24,0,.59.07.79.07V.11L67.57.05,67,0H65.05a27.73,27.73,0,0,0-5,.72A22.88,22.88,0,0,0,55.56,2.3a8.32,8.32,0,0,0-1,.5A23.51,23.51,0,0,0,49.7,6.2c-.17.14-.23.18-.4.34a24,24,0,0,0-4.06,4.94A24.62,24.62,0,0,0,42.13,19a25,25,0,0,0-.44,2.57A23.78,23.78,0,0,0,41.51,24.4Z"/><path class="cls-1" d="M0,23.72a22.89,22.89,0,0,0,.71,6.65,19.38,19.38,0,0,0,.69,2.27,26,26,0,0,0,1.87,4c.39.65.76,1.2,1.17,1.81.2.3.41.56.63.85s.42.52.66.82l2.21,2.29a4.19,4.19,0,0,0,.38.36c.72.54,1.15,1,2.08,1.63l1.81,1.15c.63.38,1.27.68,1.95,1a10.67,10.67,0,0,0,1,.45l1.08.4c.75.26,1.49.5,2.27.7a25.66,25.66,0,0,0,5.27.69h1.48c.39,0,.78,0,1.16-.06a2.94,2.94,0,0,1,.46,0V41.39a2.08,2.08,0,0,0-.41,0A18,18,0,0,1,17.3,40c-.27-.13-.47-.19-.71-.33a22,22,0,0,1-1.95-1.18,16.84,16.84,0,0,1-5-5.44,17.32,17.32,0,0,1-2.29-8.2,16.67,16.67,0,0,1,1.55-7.51c.27-.54.35-.78.69-1.36s.53-.88.83-1.29a16.77,16.77,0,0,1,5.43-5,17.24,17.24,0,0,1,8.2-2.3c.7,0,1.78,0,2.44.07a2.08,2.08,0,0,0,.41,0V.11L26,.05l-.59,0H23.49a28.07,28.07,0,0,0-5,.71,24.37,24.37,0,0,0-9,4.36L7.91,6.43c-.15.15-.24.19-.4.34L5.73,8.69c-.44.56-.9,1.08-1.29,1.67a23.69,23.69,0,0,0-3,5.87A18.81,18.81,0,0,0,.71,18.5,22.54,22.54,0,0,0,0,23.72Z"/></g></g></svg>