<svg xmlns="http://www.w3.org/2000/svg" viewBox="0 0 67.29 66.63"><defs><style>.cls-1,.cls-3{fill:#c5c6c6;}.cls-1,.cls-2{fill-rule:evenodd;}.cls-2{fill:#fff;}</style></defs><g id="Layer_2" data-name="Layer 2"><g id="Layer_1-2" data-name="Layer 1"><path class="cls-1" d="M18.66,42.61h30c-.48,2.07-3.86,4.7-5.64,5.89C37.8,52,29.7,52.08,24.45,48.6a21.06,21.06,0,0,1-4.71-4.13,4,4,0,0,1-1.08-1.86Zm-14,7.86L9,53.05c.71.82,1.34,4.44,2.08,5.05a10.58,10.58,0,0,0,2.67.76l1.34.38c1.55.44,1.71,1.18,3.31,3.56.75,1.11.12.92,3,.92,1.72,0,2.41-.61,3.52.16l2.51,1.92c1.39,1.09,1.27,1,3,.31,3.59-1.48,3.05-1.44,6.88.15,1.75.73,2.33-.17,4.59-1.94,1.71-1.35,1.74-.6,6.53-.6a17,17,0,0,1,2.83-4c1.09-.9,4.43-.9,5.17-1.7s1.07-4,2-4.93l4.29-2.58c0-8.85,1.44-5.86,4.15-7.63.74-.49.48.07.51-1.21H0c.05,2.35,2.08.87,3.9,2.73.86.88.45,1.38.52,2.91C4.47,48.43,4.67,49,4.67,50.47Z"/><path class="cls-1" d="M33.39,15.36A18.11,18.11,0,0,1,42.82,18c1.7,1.13,5.32,4,5.79,6H18.66c.47-2,3.94-4.89,5.63-5.91a18.19,18.19,0,0,1,9.1-2.68ZM15,5.54c-3,4.54-1.28,4.32-4.63,5.68C6.59,12.73,7.5,12.1,7,15a9,9,0,0,1-.66,2.78A24.66,24.66,0,0,1,2.46,21l.29,2.94H0v1H67.27V24h-2.7l.3-2.94-3.69-3c-.68-.76-1.27-4.33-1.27-5.6a23.42,23.42,0,0,1-5-2.16L52.3,5.54c-1.64,0-4.52,0-5.48-.91-.78-.72-2.63-3-3.41-3.2-.95-.19-4.24,1.1-5.44.75S34.7,0,33.64,0a7.74,7.74,0,0,0-2.13,1c-.78.39-1.43.92-2,1.17-1.35.56-4.07-.81-5.42-.71-.84.06-2.46,2.11-3.48,3.09S16.75,5.54,15,5.54Z"/><path class="cls-2" d="M17.21,12.53l4.17,4.86L20,18.9c-.84-.53-1.77-1.16-2.79-1.9l2.14,2.61-1.39,1.51-5.18-3.78,1.09-1.18,1.75,1.38,1.7,1.34c-.78-.81-1.74-1.91-2.9-3.31l1.16-1.26,1.66,1.3,1.91,1.51q-1.61-1.68-3-3.41l1.09-1.18Zm5.33-2.89L20.4,10.71l2.09,6.07L24,16,23.59,15l.53-.27.59,1,1.52-.76L22.54,9.64Zm1,4.06-.5.25c-.21-.53-.52-1.37-.92-2.54.56.91,1,1.68,1.42,2.29Zm1.64-5.17,1.12-.32a9.4,9.4,0,0,1,1.56-.34,1.07,1.07,0,0,1,.77.27,2.16,2.16,0,0,1,.57,1.07,1.9,1.9,0,0,1,.09,1,1,1,0,0,1-.62.49,1.2,1.2,0,0,1,.73.14,1.06,1.06,0,0,1,.3.3,5.75,5.75,0,0,1,.29.9l.45,1.61L29,14.08l-.57-2a1.49,1.49,0,0,0-.24-.59c-.08-.07-.22-.07-.44,0l.77,2.77-1.6.44-1.7-6.12Zm1.88.6.38,1.36a.74.74,0,0,0,.36-.18c.05-.07.05-.24,0-.51l-.09-.33q-.09-.3-.21-.36a.65.65,0,0,0-.41,0Zm4.29-1.88,1.17,0a9.53,9.53,0,0,1,1.58,0,1.12,1.12,0,0,1,.69.44,2.18,2.18,0,0,1,.3,1.18,2,2,0,0,1-.15,1,.94.94,0,0,1-.72.33,1.2,1.2,0,0,1,.67.31.86.86,0,0,1,.22.37,6.56,6.56,0,0,1,.07.94l.05,1.67-1.53,0-.07-2.12a1.34,1.34,0,0,0-.1-.62c0-.08-.19-.12-.42-.11l.09,2.87-1.66,0-.19-6.36Zm1.69,1,0,1.42a.78.78,0,0,0,.38-.09c.08,0,.11-.22.1-.5V8.76a.59.59,0,0,0-.12-.4.65.65,0,0,0-.39-.08Zm7.51-.23-.51,6.41-1.65-.38L38.6,13,38,12.82l-.34,1.09L36,13.53l2.25-6,2.33.54Zm-1.78,3.79c.09-.72.21-1.6.36-2.66-.43,1.15-.73,2-.9,2.54l.54.12ZM47,10.77l-2.92,5.66-1.29-.67.56-3-1.32,2.57-1.23-.64,2.92-5.65L45,9.71l-.49,3,1.32-2.54,1.23.63Zm4.76,3.59L49,12l-.82,1,.75.63-3.3,3.88,1.26,1.07,3.3-3.87.74.63.82-1Zm3.73,4.42-3.93,1.59-1.8,1.43-.95-1.2,1.8-1.43,2.45-3.44L54,16.92a25,25,0,0,1-1.71,1.88q.88-.53,2.25-1.2Z"/><polygon class="cls-1" points="33.64 17.09 34.38 18.82 36.26 19 34.84 20.24 35.26 22.08 33.64 21.11 32.02 22.08 32.44 20.24 31.02 19 32.89 18.82 33.64 17.09"/><polygon class="cls-1" points="28.81 19.01 29.33 20.23 30.65 20.34 29.65 21.21 29.95 22.5 28.81 21.83 27.68 22.5 27.97 21.21 26.98 20.34 28.29 20.23 28.81 19.01"/><polygon class="cls-1" points="38.46 19.01 38.98 20.23 40.3 20.34 39.3 21.21 39.6 22.5 38.46 21.83 37.33 22.5 37.62 21.21 36.62 20.34 37.94 20.23 38.46 19.01"/><path class="cls-2" d="M21.61,48.45l-5.14,3.82-1.41-1.5c.58-.8,1.28-1.69,2.08-2.65-.43.32-1.35,1-2.75,2L13,48.58l4.13-4.9,1.1,1.17-1.5,1.65-1.45,1.59q1.28-1.06,3.5-2.66l1.17,1.25c-.12.14-.59.67-1.41,1.57L16.89,50q1.78-1.47,3.62-2.76l1.1,1.17Zm3.13,1.89-2-1.31-4.2,4.85,1.43.94.71-.9.5.33-.56,1,1.41.93,2.71-5.84Zm-3,2.94c.33-.65.75-1.44,1.26-2.38-.81.94-1.38,1.62-1.73,2.07l.47.31ZM26,51l1.11.35a9,9,0,0,1,1.49.55,1.13,1.13,0,0,1,.51.64A2.06,2.06,0,0,1,29,53.74a1.77,1.77,0,0,1-.47.9,1,1,0,0,1-.78.08,1.29,1.29,0,0,1,.53.5.93.93,0,0,1,.09.42,6.48,6.48,0,0,1-.24.92l-.5,1.6L26.2,57.7l.63-2a1.41,1.41,0,0,0,.11-.63q0-.13-.36-.24l-.85,2.74-1.59-.49L26,51Zm1.26,1.53-.43,1.35a.75.75,0,0,0,.4,0c.08,0,.17-.17.25-.44l.1-.34a.49.49,0,0,0,0-.41.56.56,0,0,0-.34-.2Zm3.48-.19,1.16.09a9.2,9.2,0,0,1,1.58.21,1.12,1.12,0,0,1,.64.52,2.13,2.13,0,0,1,.17,1.2,1.94,1.94,0,0,1-.26,1,1,1,0,0,1-.75.25A1.21,1.21,0,0,1,34,56a1.1,1.1,0,0,1,.18.39,5.61,5.61,0,0,1,0,.94L34,59l-1.53-.12.16-2.11a1.39,1.39,0,0,0,0-.64c0-.08-.18-.13-.41-.15L32,58.8l-1.66-.12.49-6.35Zm1.57,1.21L32.24,55a.72.72,0,0,0,.39,0c.08,0,.13-.21.15-.49l0-.35c0-.2,0-.34-.08-.4a.62.62,0,0,0-.38-.13Zm5.92-1.61,2,6.12-1.66.28-.28-1.11-.59.1.1,1.14-1.69.28-.22-6.41,2.36-.4Zm-.19,4.19q-.3-1-.69-2.61c0,1.24.09,2.13.14,2.7l.55-.09Zm5.18-6L42,50.64l1.15,2.62-2-2.25-1.27.56,2.57,5.82,1.27-.55-1.17-2.65,2,2.3,1.33-.59-2.57-5.82Zm3.38-2.61.8,1-.75.62L49.91,53l-1.29,1.05-3.21-3.94-.76.62-.81-1,2.8-2.28ZM49.73,44l-.94,1.19q1,1.18,1.68,1.92c-.36-.24-1.1-.65-2.22-1.24L47.31,47l3.91,1.61L53,50.05,54,48.86l-1.81-1.43Z"/><polygon class="cls-1" points="33.64 49.94 34.38 48.21 36.26 48.03 34.84 46.79 35.26 44.95 33.64 45.92 32.02 44.95 32.44 46.79 31.02 48.03 32.89 48.21 33.64 49.94"/><polygon class="cls-1" points="28.81 48.02 29.33 46.81 30.65 46.69 29.65 45.82 29.95 44.53 28.81 45.2 27.68 44.53 27.97 45.82 26.98 46.69 28.29 46.81 28.81 48.02"/><polygon class="cls-1" points="38.46 48.02 38.98 46.81 40.3 46.69 39.3 45.82 39.6 44.53 38.46 45.2 37.33 44.53 37.62 45.82 36.62 46.69 37.94 46.81 38.46 48.02"/><path class="cls-2" d="M33.64,4.46A28.83,28.83,0,1,1,13.26,12.9,28.72,28.72,0,0,1,33.64,4.46ZM53.8,13.11a28.51,28.51,0,1,0,8.36,20.17A28.42,28.42,0,0,0,53.8,13.11Z"/><rect class="cls-3" y="25.18" width="67.27" height="16.2"/><path class="cls-2" d="M16.85,26.9V39.66H13.68V32.81A13.47,13.47,0,0,0,13.61,31a.69.69,0,0,0-.39-.45,4.17,4.17,0,0,0-1.42-.15h-.32V28.93a5.68,5.68,0,0,0,3.5-2Zm12.46,0L26.89,35v4.62H23.82V35L21.48,26.9h3.05q.7,3.75.81,5c.19-1.37.49-3,.92-5Zm1.77,0h5.53v2.55H34.4v2.43h2.07V34.3H34.4v2.81h2.44v2.55H31.08V26.9Zm13.63,0,1.9,12.76H43.22L43,37.37h-1.2l-.18,2.29H38.23L39.91,26.9ZM43,35.11c-.16-1.45-.32-3.24-.5-5.37-.33,2.45-.54,4.24-.62,5.37Zm5.44-8.21h2.34a18,18,0,0,1,3.18.18,2.17,2.17,0,0,1,1.36.93,4.18,4.18,0,0,1,.52,2.37,3.68,3.68,0,0,1-.37,2A1.9,1.9,0,0,1,54,33a2.6,2.6,0,0,1,1.33.66,2.05,2.05,0,0,1,.42.75,12.83,12.83,0,0,1,.08,1.89v3.37H52.71V35.41a2.85,2.85,0,0,0-.16-1.26c-.11-.17-.39-.25-.84-.25v5.76H48.39V26.9Zm3.32,2.18v2.84a1.37,1.37,0,0,0,.78-.16c.15-.1.22-.43.22-1v-.71a1.07,1.07,0,0,0-.21-.79A1.22,1.22,0,0,0,51.71,29.08Z"/></g></g></svg>