<?xml version="1.0" encoding="UTF-8"?>
<!DOCTYPE svg PUBLIC "-//W3C//DTD SVG 1.1//EN" "http://www.w3.org/Graphics/SVG/1.1/DTD/svg11.dtd">
<!-- Creator: CorelDRAW -->
<svg xmlns="http://www.w3.org/2000/svg" xml:space="preserve" width="24.572mm" height="20.6592mm" version="1.1" style="shape-rendering:geometricPrecision; text-rendering:geometricPrecision; image-rendering:optimizeQuality; fill-rule:evenodd; clip-rule:evenodd"
viewBox="0 0 5243.18 4408.26"
 xmlns:xlink="http://www.w3.org/1999/xlink"
 xmlns:xodm="http://www.corel.com/coreldraw/odm/2003">
 <defs>
  <style type="text/css">
   <![CDATA[
    .fil0 {fill:#00A0E3}
   ]]>
  </style>
 </defs>
 <g id="Layer_x0020_1">
  <metadata id="CorelCorpID_0Corel-Layer"/>
  <g id="_2235524204256">
   <path class="fil0" d="M3298.47 934.75l451.26 0c0,468.63 -58.89,606.28 -150.43,999.22 245.96,57.29 151.35,612.44 128.8,655.25 -92.12,174.78 -246.82,108.03 -328.86,165.37 -83.2,58.17 -90.03,108.53 -90.03,200.09 0,96.98 128.92,133.79 128.92,290.09 0,131.87 -114.65,216.71 -185.32,287.4 -97.62,97.62 -231.9,267.77 -425.48,140.77 -38.96,-25.54 -66.57,-63.37 -113.94,-79.74 -107.03,-36.96 -215,26.91 -249.31,106.48 -20.72,48.01 -12.44,108.06 -29.87,163.51 -79.31,252.3 -415.17,140.34 -606.75,166.84 -32.78,4.54 -95.19,40.41 -136.01,57.4 -95.34,39.69 -174.89,77.2 -279.27,107.5 -204.33,59.28 -404.63,127.17 -627.85,145.74 14.62,9.28 -9.9,-0.7 21.94,10.28l90.03 17.43c687.08,103.23 1376.56,7 1990.32,-299.88l264.83 -143.46c125.77,-75 368.17,-243.77 477.29,-350.03l107.56 -96.55c162.34,-162.87 248.33,-250 389.48,-437.83l169.81 -249.23c71.7,-110.89 94.53,-171.66 148,-260.26 100.72,-166.91 233.42,-565.39 281.81,-760.38 72.1,-290.45 98.75,-509.74 98.75,-836l419.04 0c-32.6,-48.69 -291.11,-285.69 -357.24,-351.86l-306.31 -295.4c-26.33,-23.19 -37.96,-27.23 -64.59,-53.58 -77.84,-77.03 -161.4,-174.84 -249.59,-233.91 -46.15,30.92 -80.21,74.73 -120.86,115.5l-725.24 693.02c-58.55,58.55 -111.7,91.84 -120.88,126.24z"/>
   <path class="fil0" d="M1450.47 1192.62c-248.31,0 -236.04,-128.95 -333.07,-128.95 -67.26,0 -174.52,116.95 -204.16,161.17 101.36,0 226.01,-12.61 304.37,17.99 176.44,68.9 137.91,380.99 79.76,452.09 -45.94,56.16 -65.1,48.54 -126.26,77.88l0 53.73c102.76,23.92 127.22,59.85 182.65,64.46 23.73,-88.89 184.34,-218.01 259.83,-266.64 291.2,-187.56 669.65,-153.93 946.92,69.84 66.57,53.75 49.65,34.7 102.66,101.46 54.52,68.69 74.88,96.36 116.06,184.81 261.75,562.45 -203.18,1146.11 -684.12,1146.11 -148.98,0 -240.1,-21.49 -290.09,-21.49 -40.52,173.97 -183.17,291.18 -225.63,354.55 17.86,24.37 19.46,19.8 47.29,38.66 27.97,18.99 29.43,21.42 52.45,44.26 168.12,166.86 23.88,346.87 222.6,346.87 276.09,0 384.15,38.34 398.64,-117.1 28.91,-310.25 330.57,-401.79 521.22,-287.06 136.2,81.96 111.56,162.42 329.14,-55.18 80.62,-80.59 198.44,-158.31 102.53,-269.03 -146.36,-168.95 -117.12,-407.66 60.49,-524.19 124.04,-81.36 204.93,-37.64 259.9,-83.9 60.17,-50.59 36.4,-265.85 36.4,-393.37 0,-145.67 -176.23,-78.4 -291.95,-159.31 -148.43,-103.75 -205.95,-279.53 -116.85,-453.62 19.57,-38.22 18.59,-31.47 46,-61.45 112.79,-123.42 -23.37,-200.62 -107.27,-284.54 -190.31,-190.31 -165.05,-162.45 -303.15,-61.39 -135.69,99.26 -388.44,70.27 -491.29,-121.9 -76.28,-142.54 -0.85,-276.01 -175.23,-276.01 -192.79,0 -359.89,-34.99 -391.49,92.01 -20.89,83.99 1.62,104.85 -42.42,183.19 -48.37,86.08 -156.6,176.06 -285.95,176.06z"/>
   <path class="fil0" d="M924 2900.95c-121.03,0 -185.34,-67.45 -166.82,-165.78 22.34,-118.51 112.11,-113.43 170.47,-119 37.68,-3.58 23.37,-5.12 79.61,-61.71 80.7,-81.19 192.53,-222.96 260.56,-222.96 30.34,0 64.46,44.81 64.46,75.22 0,42.48 -72.02,98.88 -99.39,126.24l-167.42 165.65c-39.88,43.53 -16,26.48 -25.86,92.33 -7.45,49.65 -54.63,110.02 -115.61,110.02zm-848.78 -182.65c0,272.19 59.7,440.65 249.78,631.24 515.87,517.15 1404.81,137.93 1404.81,-588.27 0,-249.14 -106.39,-445.58 -233.67,-572.14 -83.37,-82.9 -123.08,-116.68 -235.36,-172.92 -285.48,-142.96 -638.67,-98.03 -882.31,102.83 -175.27,144.5 -303.26,355.98 -303.26,599.26z"/>
   <path class="fil0" d="M601.67 1428.99c0,92.52 -7.28,105.24 10.75,182.65 74.92,17.45 71.38,10.75 161.17,10.75l0 171.9c60.26,0 85.5,-10.86 128.92,-10.86 43.42,0 68.69,10.86 128.92,10.86l0 -171.9c189.44,0 161.17,28.98 161.17,-204.14 0,-25.16 -17.82,-43 -42.97,-43l-494.23 0c-25.05,0 -53.73,28.68 -53.73,53.73z"/>
   <path class="fil0" d="M1493.45 1998.43c60.92,16.26 126.75,123.72 182.63,161.17 48.03,-32.16 128.95,-101.16 128.95,-161.17 0,-32.28 -122.65,-145.53 -151.86,-147.64 -42.06,-3.05 -150.56,113.28 -159.72,147.64z"/>
   <path class="fil0" d="M-0 2009.19c0,47.86 97.88,129.61 128.92,150.41 0.17,-0.11 171.81,-171.75 171.92,-171.9 -20.8,-31.07 -102.55,-128.95 -150.43,-128.95 -27.01,0 -150.41,123.42 -150.41,150.43z"/>
  </g>
 </g>
</svg>
