<?xml version="1.0" encoding="UTF-8"?>
<!DOCTYPE svg PUBLIC "-//W3C//DTD SVG 1.1//EN" "http://www.w3.org/Graphics/SVG/1.1/DTD/svg11.dtd">
<!-- Creator: CorelDRAW -->
<svg xmlns="http://www.w3.org/2000/svg" xml:space="preserve" width="20.0513mm" height="22.5272mm" version="1.1" style="shape-rendering:geometricPrecision; text-rendering:geometricPrecision; image-rendering:optimizeQuality; fill-rule:evenodd; clip-rule:evenodd"
viewBox="0 0 238.99 268.5"
 xmlns:xlink="http://www.w3.org/1999/xlink"
 xmlns:xodm="http://www.corel.com/coreldraw/odm/2003">
 <defs>
  <style type="text/css">
   <![CDATA[
    .fil0 {fill:#00A0E3}
   ]]>
  </style>
 </defs>
 <g id="Layer_x0020_1">
  <metadata id="CorelCorpID_0Corel-Layer"/>
  <path class="fil0" d="M146.98 173.78c9.64,-6.35 26.87,-13.68 41.48,-13.74 13.91,-0.06 33.26,7.44 41.96,13.82 0,10.52 -0,21.04 0,31.56 0,11.21 -0.58,17.6 -5.96,25.46 -4.68,6.84 -10.1,9.67 -16.87,14.72 -3.03,2.26 -5.8,4.27 -9.13,6.65 -2.21,1.58 -7.68,5.01 -9.27,6.85 -2.27,-0.76 -7.27,-4.83 -9.57,-6.42 -7.62,-5.31 -21.95,-14.95 -26.48,-21.41 -5.02,-7.17 -6.16,-14.71 -6.16,-25.33 0,-10.72 0,-21.44 0,-32.16zm-116.44 63.22c-3.86,0 -7.72,-0 -11.58,0 -7.59,0 -10,1.24 -10,-3.69 0,-7.95 3.49,-19.68 6.38,-26.78 4.08,-9.99 15.7,-27.93 23.62,-33.23 0,2.96 0.43,6.02 0.22,8.12 -0.51,5.25 -0.04,9.34 -0.83,17.07 -1.84,17.92 -4.17,22.88 -7.81,38.51zm16.79 -70.75c4.41,-2.02 7.47,-5.24 16.7,-9.04 5.81,7.15 22.66,30.9 29.26,40.2 3.22,4.54 2.28,5.01 2.28,11.7 -0,9.22 0,18.44 0,27.66l-56.11 0.25c2.61,-13.06 4.69,-15.66 6.82,-32.66 1.66,-13.25 1.6,-24.68 1.04,-38.11zm91.25 6.53c0,12.94 -1.37,41.79 2.22,52.4 1.85,5.46 3.7,7.7 5.94,11.67 -5.4,0.5 -35.26,0.16 -43.02,0.15l0.27 -34.75c0.01,-2.83 5.6,-9.43 7.36,-11.85 7.27,-9.97 17.08,-24.21 23.95,-32.95 2.56,0.13 10.83,4.65 12.43,6.17 -4.42,3.12 -9.15,2.95 -9.15,9.14zm-65.93 -18.95c9.73,-0.81 6.59,-3.69 31.58,-3.69 11.09,0 17.5,3.26 22.64,3.69 -0.53,1.99 -1.92,3.27 -3.08,4.81l-23.76 33.09c-1.18,-0.87 -2.48,-2.98 -3.47,-4.42 -1.28,-1.87 -2.3,-2.97 -3.58,-4.84l-10.17 -14.04c-1.33,-1.78 -2.16,-3.08 -3.53,-4.89l-6.62 -9.7zm74.43 -59.91c1.55,14.62 -8.32,30.45 -20.44,39.14 -29.71,21.31 -75.52,-1.11 -74.27,-39.14l94.71 -0zm-102.33 -8.41c-3.4,0 -4.48,-0.58 -4.29,-4.31 0.16,-3.12 1.26,-3.52 4.29,-3.52l110.02 0c3.28,0 4.39,0.54 4.35,4.05 -0.03,3.06 -1.38,3.78 -4.35,3.78l-110.02 0zm49.52 -75.92c0.98,-1.39 0.69,-1.09 5.22,-1.07 5.55,0.02 6.13,-0.33 6.21,3.67l-0.12 56.37c-0.76,1.2 0.35,0.78 -2.35,0.9l-9.19 -0.18c-0.82,-2.41 -0.48,-46.36 -0.41,-56.55 0.01,-1.72 -0.06,-2.11 0.65,-3.14zm31.54 54.22c3.34,0 4.5,-2.04 4.75,-5.26 0.21,-2.76 0.26,-6.92 0.66,-9.87 0.34,-2.49 0.54,-7.09 0.83,-9.7l0.6 -9.92c4.96,3.32 10.82,11.06 13.34,16.14 3.34,6.75 6.14,14.05 6.14,23.87l-37.9 0 0 -49.48c2.72,0.23 7.94,2.59 10,3.69l-1.59 22.09c-0.19,7.65 -2.87,18.44 3.17,18.44zm-50.54 -40.53c1.92,-1.02 7.52,-3.48 10,-3.69l0 49.48 -37.9 0c0,-14.21 8.26,-32.49 19.48,-40.01 0,2.45 0.34,2.21 0.5,4.24 0.34,4.32 0.15,9.06 0.94,14.85 0.76,5.57 -0.93,15.65 4.88,15.65 7.07,0 3.67,-10.69 3.69,-17.9l-1.04 -16.85c-0.07,-2.69 -0.54,-2.88 -0.54,-5.78zm10 -12.63c-8.4,0.19 -19.47,8.34 -26.02,13.46 -3.1,2.43 -3.94,3.95 -6.49,6.67 -9.21,9.85 -13.82,25.04 -13.82,39.35 -8.2,2.19 -8.99,16.4 -3.26,21.16 2.32,1.93 4.66,2.28 8,3.05 0,13.57 6.32,28.63 13.81,36.19 4.45,4.5 11.22,11.68 17.24,13.29 -1.02,1.4 -3.66,1.67 -7.17,2.83 -2.98,0.99 -5.05,1.84 -7.58,2.95 -5.15,2.26 -9.16,4.39 -13.78,7.28 -8.8,5.52 -18.12,13.89 -24.42,21.9l-4.51 6.02c-0.74,1.08 -1.32,2.18 -2.03,3.24 -7.97,12.08 -15.27,31.88 -15.27,47.38 0,3.57 3.05,7 5.27,8.42 3.58,2.28 6.55,1.58 12.1,1.58 17.6,0 135.36,-0.77 138.04,0.41l28.21 20.23c6.53,4.5 6.05,3.3 21.24,-7.92 16.34,-12.08 34.14,-20.85 34.14,-46.4l0 -40.01c0,-3.88 -4.53,-5.66 -8.61,-7.71 -2.15,-1.08 -3.17,-1.93 -5.42,-3 -18.9,-8.98 -36.85,-12.65 -57.5,-6.07 -11.67,3.72 -8.94,5.52 -14.17,1.94 -7.03,-4.82 -19.09,-10.33 -28.53,-12.53 0.78,-0.68 0.23,-0.22 1.23,-0.88 0.55,-0.36 1.08,-0.67 1.63,-1 1.41,-0.84 1.91,-1.11 3.26,-2.01 2.19,-1.46 3.8,-2.62 5.6,-4.4l5.01 -4.99c1.85,-2.09 3.04,-3.49 4.72,-5.81 5.06,-7.02 9.62,-18.96 9.62,-30.92 3.34,-0.78 5.68,-1.13 8,-3.05 4.44,-3.69 4.98,-13.41 1.34,-17.86 -4.87,-5.97 -3.91,0.18 -4.63,-10.11 -1.41,-20.13 -16.33,-40.51 -34.86,-48.84 -2.87,-1.29 -7.8,-3.75 -11.44,-3.83 0,-12.51 -12.72,-10.53 -20,-10.53 -3.67,0 -8.95,4.2 -8.95,10.53z"/>
 </g>
</svg>
