<?xml version="1.0" encoding="UTF-8"?>
<!DOCTYPE svg PUBLIC "-//W3C//DTD SVG 1.1//EN" "http://www.w3.org/Graphics/SVG/1.1/DTD/svg11.dtd">
<!-- Creator: CorelDRAW -->
<svg xmlns="http://www.w3.org/2000/svg" xml:space="preserve" width="20.3973mm" height="17.6119mm" version="1.1" style="shape-rendering:geometricPrecision; text-rendering:geometricPrecision; image-rendering:optimizeQuality; fill-rule:evenodd; clip-rule:evenodd"
viewBox="0 0 3612.92 3119.55"
 xmlns:xlink="http://www.w3.org/1999/xlink"
 xmlns:xodm="http://www.corel.com/coreldraw/odm/2003">
 <defs>
  <style type="text/css">
   <![CDATA[
    .fil0 {fill:#00aeef}
   ]]>
  </style>
 </defs>
 <g id="Layer_x0020_1">
  <metadata id="CorelCorpID_0Corel-Layer"/>
  <g id="_2652143861072">
   <path class="fil0" d="M710.33 2074.87c0,183.77 228.16,61.96 368.78,236.41 96.66,119.92 13.41,309.94 -174.26,325.54 0,53.39 -4.59,100.86 -57.62,100.86 -53.05,0 -57.64,-47.47 -57.64,-100.86 -172.58,-14.37 -286.26,-252.16 -158.49,-252.16 75.28,0 30.25,92.11 139.51,134.26 137.19,52.94 294.53,-35.02 218.11,-146.06 -43.34,-62.99 -185.95,-60.56 -261.72,-98.5 -241.9,-121.14 -99.69,-390.39 62.6,-394 0,-147.02 101.55,-134.56 114.39,-35.16 7.62,58.93 -7.1,11.53 78.79,58.12 51.54,27.97 116.62,92.12 116.62,157.15 0,33.71 -36.95,43.22 -64.85,43.22 -56.84,0 -21.5,-122.47 -201.73,-122.47 -53.39,0 -122.48,42.74 -122.48,93.65zm79.26 1044.66c191.01,0 238.96,0.81 418.78,-63.93 97.76,-35.2 161.77,-87.18 236.84,-145 54.96,-42.35 134.42,-139.54 168.2,-206.42 182.81,-361.94 47.82,-636.72 -174.38,-932.93l-190.48 -234.59c-15.91,-18.88 -27.63,-25.24 -41.11,-45.34 -58.88,28.25 -549.54,14.4 -648.39,14.4 -28.13,0 -53.53,-5.53 -72.04,-14.4 -13.48,25.47 -247.08,290.63 -319.34,408.3 -54.79,89.15 -85.36,134.83 -124.34,235.9 -16.88,43.79 -28.57,91.36 -36.2,143.9 -68.39,470.57 368.57,840.12 782.48,840.12z"/>
   <path class="fil0" d="M2907.71 1311.2c0,220.19 -50.2,239.35 112.32,126.75l187.37 -129.66c35.9,-23.75 183.01,-118.06 183.01,-141.17 0,-20.19 -87.02,-85.41 -102.61,-99.12l-270.93 -247.78c-25.13,-20.3 -44.69,-43.27 -58.72,-34.93 -22.02,13.07 -12.15,7.76 -20.56,87.5 -2.04,19.31 -0.19,37.48 -1.05,56.59 -1.38,31.19 -4.94,23.24 -7.21,50.43 -109.54,0 -208.05,-20.25 -302.66,-35.96 -93.31,-15.5 -182.19,-42.69 -270.67,-67.95 -277.63,-79.26 -552.51,-225.06 -771.78,-409.75 -17.55,-14.77 -26.68,-28.11 -44.28,-42.17 -51.61,-41.2 -83.85,-76.96 -125.71,-126.45 -56.11,-66.35 -102.73,-117.75 -152.12,-193.69 -16.46,-25.31 -51.28,-90.81 -69.06,-103.85 43.04,184.76 145.99,380.03 243.83,512.64 100.63,136.39 189.76,228.28 316.51,339.09 76.8,67.13 191.67,142.8 279.42,196.06 82.82,50.23 165.19,86.85 255.44,126.42 160.07,70.18 440.94,133.02 619.47,136.99z"/>
   <path class="fil0" d="M2223.29 1772.29l0 979.82 417.84 0 0 -1001.43c0,-22.94 -36.7,-50.43 -64.83,-50.43 -71.72,0 -297.29,-13.07 -329.55,16.28 -10.72,9.76 -23.47,36.36 -23.47,55.76z"/>
   <path class="fil0" d="M1459.6 1318.41l0 288.19c0,12.68 94.85,130.72 109.2,150.17 37.02,50.18 72.68,106.6 105.64,160.92 128.68,212.11 165.07,441.45 102.29,683.25 -13.48,51.93 -50.78,121.21 -57.76,151.16l158.49 0 0 -1404.87c0,-44.95 -20.62,-79.25 -64.85,-79.25l-302.57 0c-20.07,0 -50.45,30.36 -50.45,50.43z"/>
   <path class="fil0" d="M1488.42 3025.87l1923.59 0c66.42,0 153.13,15.07 183.4,-25.54 33.78,-45.38 18.92,-132.95 -46.51,-132.95l-1894.77 0c-24.87,0 -68.25,74.18 -121.4,116.34 -22.07,17.5 -27.99,17.8 -44.3,42.16z"/>
   <path class="fil0" d="M2994.15 2182.96l0 569.15 417.86 0 0 -569.15c0,-35.62 -29.23,-64.85 -64.85,-64.85l-302.57 0c-26.21,0 -50.45,35.12 -50.45,64.85z"/>
   <path class="fil0" d="M659.91 749.27c-25.26,0 -131.75,-73.37 -203.2,12.93 -59.37,71.68 -35.8,131.48 20.16,191.72 1.01,1.08 2.48,2.64 3.49,3.72l28.48 29.16c8.96,7.85 8.52,5.12 19.04,16.99l16.77 26.46 555.1 0.35c59.46,0.57 49.81,-2.57 80.73,-34.52 64.74,-66.88 91.81,-67.52 91.81,-167.56 0,-61.5 -62.86,-108.07 -144.09,-108.07 -38.24,0 -48.2,28.82 -86.44,28.82 -97.95,0 -31.12,-151.3 -208.94,-151.3 -40.37,0 -78.59,34.86 -95.4,63.11 -22.3,37.46 -17.8,88.19 -77.51,88.19z"/>
   <path class="fil0" d="M443.78 1267.99c0,38.68 21.04,76.06 41.94,94.94 24.43,22.05 57.28,34.73 102.15,34.73l533.14 0c162.37,0 203.71,-259.37 -28.82,-259.37l-482.71 0c-90.99,0 -165.7,41.18 -165.7,129.69z"/>
  </g>
 </g>
</svg>
