<?xml version="1.0" encoding="UTF-8"?>
<!DOCTYPE svg PUBLIC "-//W3C//DTD SVG 1.1//EN" "http://www.w3.org/Graphics/SVG/1.1/DTD/svg11.dtd">
<!-- Creator: CorelDRAW -->
<svg xmlns="http://www.w3.org/2000/svg" xml:space="preserve" width="16.1632mm" height="16.155mm" version="1.1" style="shape-rendering:geometricPrecision; text-rendering:geometricPrecision; image-rendering:optimizeQuality; fill-rule:evenodd; clip-rule:evenodd"
viewBox="0 0 157.35 157.27"
 xmlns:xlink="http://www.w3.org/1999/xlink"
 xmlns:xodm="http://www.corel.com/coreldraw/odm/2003">
 <defs>
  <style type="text/css">
   <![CDATA[
    .fil0 {fill:#00A0E3}
   ]]>
  </style>
 </defs>
 <g id="Layer_x0020_1">
  <metadata id="CorelCorpID_0Corel-Layer"/>
  <g id="_2652789714896">
   <path class="fil0" d="M70.83 2.62c0,1.58 1.04,2.62 2.62,2.62l41.94 0 0 5.24 -49.8 0c-1.58,0 -2.62,1.04 -2.62,2.62l0 10.48c0,3.52 5.24,3.52 5.24,0l0 -7.86 52.42 0 0 5.24 -44.56 0c-3.52,0 -3.52,5.24 0,5.24l44.56 0 0 5.24 -31.45 0c-3.52,0 -3.52,5.24 0,5.24l31.45 0 0 5.24 -23.59 0c-3.52,0 -3.52,5.24 0,5.24l23.59 0 0 5.24 -18.35 0c-3.52,0 -3.52,5.24 0,5.24l18.35 0 0 5.24 -18.35 0c-3.52,0 -3.52,5.24 0,5.24l18.35 0 0 5.24 -20.97 0c-3.52,0 -3.52,5.24 0,5.24l20.97 0 0 5.24 -26.21 0c-3.52,0 -3.52,5.24 0,5.24l26.21 0c0,3.94 -0.81,7.86 2.62,7.86 1.59,0 2.62,-1.04 2.62,-2.62l0 -62.9 15.73 0 0 49.8c0,3.52 5.24,3.52 5.24,0l0 -52.42c0,-1.58 -1.04,-2.62 -2.62,-2.62l-18.35 0 0 -13.11c0,-3.12 -3.09,-2.62 -5.24,-2.62 0,-5.59 1.05,-10.48 -2.62,-10.48l-44.56 0c-1.58,0 -2.62,1.04 -2.62,2.62z"/>
   <path class="fil0" d="M28.57 97.96c-0.75,2.98 -2.12,3.59 -5.16,6.64 -2.05,2.05 -3.85,3.85 -5.9,5.9 -1.74,1.74 -3.89,4.76 -6.96,4.76 -3.27,0 -5.79,-3.03 -5.02,-6.23 0.71,-2.97 8.65,-9.95 11.16,-12.45 1.74,-1.74 3.89,-4.77 6.96,-4.77 3.05,0 5.78,2.7 4.91,6.16zm5.57 -35.06c0,-1.37 0.42,-4.54 0.73,-5.82 0.38,-1.6 0.94,-3.33 1.67,-4.88 7.8,-16.7 29.22,-20.75 42.24,-7.72 3.48,3.48 5.87,7.69 7.05,12.61 3.37,14.1 -6.02,28.04 -19.66,31.3 -3.85,0.92 -7.79,0.92 -11.64,0 -11.61,-2.78 -20.39,-13.42 -20.39,-25.48zm-5.24 -1.31c0,9.48 1.61,13.43 6.23,20.31l-6.15 5.97c-4.91,-2.72 -9.68,-1.47 -13.59,2.46l-11.47 11.47c-3,2.98 -3.85,4.38 -3.85,8.93 0,5.4 4.54,9.83 11.14,9.83 3.65,0 5.73,-1.95 7.62,-3.85l11.47 -11.47c3.92,-3.9 5.15,-8.59 2.54,-13.51l5.82 -5.98c0.89,0.62 1.06,0.97 1.81,1.62 4.44,3.8 12.14,6.98 18.25,6.98 7.8,0 13.71,-1.27 19.85,-5.71l3.04 -2.53c2.98,-2.37 5.44,-6.14 7.15,-9.56 5,-10.01 3.84,-22.88 -2.65,-31.87 -0.55,-0.77 -0.97,-1.37 -1.58,-2.02 -0.42,-0.45 -0.57,-0.55 -0.95,-1.02 -1.96,-2.46 -0.97,-0.99 -2.82,-2.75 -0.74,-0.71 -1.32,-1.12 -2.19,-1.75 -1.67,-1.2 -2.95,-1.86 -4.77,-2.76 -10.63,-5.24 -25.45,-3.34 -33.67,4.35 -3.93,3.67 -5.56,5.2 -8.28,10.73 -1.52,3.08 -2.94,7.52 -2.94,12.13z"/>
   <path class="fil0" d="M102.29 99.6c-2.09,0 -32.8,20.19 -34.16,20.4 -0.7,0.1 -2.7,-0.99 -3.56,-1.35 -19.11,-7.89 -10.92,-7.58 -25.88,-0.74 -4.2,1.92 -10.26,5.48 -14.43,7.2l-22.05 11.04c-3.67,1.6 -2.24,5.39 0.48,5.39 1.45,0 39.89,-19.56 45.87,-22.63 1.91,-0.98 2.38,-0.21 6.34,1.55 2.41,1.07 11.9,5.35 13.32,5.35 1.7,0 24.13,-14.31 25.09,-14.89l9.07 -5.51c0.7,-0.1 2.7,0.99 3.56,1.35 2.33,0.96 13.08,5.94 14.7,5.94 1.09,0 8.23,-3.85 9.69,-4.73 3.09,-1.85 6.31,-3.33 9.33,-5.09l9.37 -5.04c1.76,-0.9 3.08,-1.71 4.7,-2.51 1.53,-0.75 3.61,-1.37 3.61,-3.6 0,-5.65 -7.81,-0.27 -9.07,0.43l-9.6 5.14c-1.21,0.6 -1.98,1.07 -3.17,1.74l-9.39 5.03c-1.3,0.65 -2.08,1.08 -3.18,1.73 -2.97,1.74 -2.03,1.42 -6.63,-0.55 -2.08,-0.89 -12.52,-5.66 -14,-5.66z"/>
   <path class="fil0" d="M0.06 154.65c0,1.58 1.04,2.62 2.62,2.62l152.02 0c3.52,0 3.52,-5.24 0,-5.24l-152.02 0c-1.58,0 -2.62,1.04 -2.62,2.62z"/>
   <path class="fil0" d="M16.44 55.04c0,2.22 1.57,2.62 3.28,2.62 2.13,0 2.38,-3.92 2.9,-5.61 1.44,-4.62 1.79,-5.15 3.87,-8.91l3.48 -5.04c0.71,-0.83 1.25,-1.56 1.94,-2.31 0.75,-0.81 1.39,-1.41 2.22,-2.05 4.65,-3.58 7.05,-5.81 13.39,-7.91 2.3,-0.76 4.96,-0.85 4.96,-3.56 0,-7.31 -16.56,2.96 -19.88,5.67 -5.84,4.76 -8.01,7.89 -11.76,14.13 -1.22,2.03 -4.4,10.11 -4.4,12.97z"/>
   <path class="fil0" d="M152.09 107.47l0 36.7c0,3.52 5.24,3.52 5.24,0l0 -36.7c0,-3.52 -5.24,-3.52 -5.24,0z"/>
   <path class="fil0" d="M141.6 110.09l0 34.08c0,3.52 5.24,3.52 5.24,0l0 -34.08c0,-3.52 -5.24,-3.52 -5.24,0z"/>
   <path class="fil0" d="M131.12 115.33l0 28.83c0,3.52 5.24,3.52 5.24,0l0 -28.83c0,-3.52 -5.24,-3.52 -5.24,0z"/>
   <path class="fil0" d="M99.66 117.95l0 26.21c0,3.52 5.24,3.52 5.24,0l0 -26.21c0,-3.52 -5.24,-3.52 -5.24,0z"/>
   <path class="fil0" d="M120.64 117.95l0 26.21c0,3.52 5.24,3.52 5.24,0l0 -26.21c0,-3.52 -5.24,-3.52 -5.24,0z"/>
   <path class="fil0" d="M110.15 120.57l0 23.59c0,3.52 5.24,3.52 5.24,0l0 -23.59c0,-3.52 -5.24,-3.52 -5.24,0z"/>
   <path class="fil0" d="M89.18 120.57l0 23.59c0,3.52 5.24,3.52 5.24,0l0 -23.59c0,-3.52 -5.24,-3.52 -5.24,0z"/>
   <path class="fil0" d="M47.24 128.44l0 15.73c0,3.52 5.24,3.52 5.24,0l0 -15.73c0,-3.52 -5.24,-3.52 -5.24,0z"/>
   <path class="fil0" d="M78.7 128.44l0 15.73c0,3.52 5.24,3.52 5.24,0l0 -15.73c0,-3.52 -5.24,-3.52 -5.24,0z"/>
   <path class="fil0" d="M57.73 131.06l0 13.11c0,3.52 5.24,3.52 5.24,0l0 -13.11c0,-3.52 -5.24,-3.52 -5.24,0z"/>
   <path class="fil0" d="M68.21 133.68l0 10.49c0,3.52 5.24,3.52 5.24,0l0 -10.49c0,-3.52 -5.24,-3.52 -5.24,0z"/>
   <path class="fil0" d="M36.76 133.68l0 10.49c0,3.52 5.24,3.52 5.24,0l0 -10.49c0,-3.52 -5.24,-3.52 -5.24,0z"/>
   <path class="fil0" d="M62.97 102.22c0,5.58 -1.05,10.48 2.62,10.48 3.67,0 2.62,-4.9 2.62,-10.48 0,-3.52 -5.24,-3.52 -5.24,0z"/>
   <path class="fil0" d="M26.27 138.92c0,3.94 -0.81,7.86 2.62,7.86 3.43,0 2.62,-3.93 2.62,-7.86 0,-3.52 -5.24,-3.52 -5.24,0z"/>
   <path class="fil0" d="M15.79 65.53c0,3.52 5.24,3.52 5.24,0 0,-3.52 -5.24,-3.52 -5.24,0z"/>
   <path class="fil0" d="M131.12 39.32c0,3.52 5.24,3.52 5.24,0 0,-3.52 -5.24,-3.52 -5.24,0z"/>
   <path class="fil0" d="M131.12 49.8c0,3.52 5.24,3.52 5.24,0 0,-3.52 -5.24,-3.52 -5.24,0z"/>
   <path class="fil0" d="M131.12 60.29c0,3.52 5.24,3.52 5.24,0 0,-3.52 -5.24,-3.52 -5.24,0z"/>
   <path class="fil0" d="M131.12 70.77c0,3.52 5.24,3.52 5.24,0 0,-3.52 -5.24,-3.52 -5.24,0z"/>
   <path class="fil0" d="M131.12 81.26c0,3.52 5.24,3.52 5.24,0 0,-3.52 -5.24,-3.52 -5.24,0z"/>
   <path class="fil0" d="M15.79 144.16c0,3.52 5.24,3.52 5.24,0 0,-3.52 -5.24,-3.52 -5.24,0z"/>
  </g>
 </g>
</svg>
