<?xml version="1.0" encoding="UTF-8"?>
<!DOCTYPE svg PUBLIC "-//W3C//DTD SVG 1.1//EN" "http://www.w3.org/Graphics/SVG/1.1/DTD/svg11.dtd">
<!-- Creator: CorelDRAW -->
<svg xmlns="http://www.w3.org/2000/svg" xml:space="preserve" width="28.9474mm" height="28.9474mm" version="1.1" style="shape-rendering:geometricPrecision; text-rendering:geometricPrecision; image-rendering:optimizeQuality; fill-rule:evenodd; clip-rule:evenodd"
viewBox="0 0 366.66 366.66"
 xmlns:xlink="http://www.w3.org/1999/xlink"
 xmlns:xodm="http://www.corel.com/coreldraw/odm/2003">
 <defs>
  <style type="text/css">
   <![CDATA[
    .fil1 {fill:none}
    .fil0 {fill:#FEFEFE}
   ]]>
  </style>
   <clipPath id="id0">
    <path d="M183.33 0c101.25,0 183.33,82.08 183.33,183.33 0,101.25 -82.08,183.33 -183.33,183.33 -101.25,0 -183.33,-82.08 -183.33,-183.33 0,-101.25 82.08,-183.33 183.33,-183.33z"/>
   </clipPath>
    <clipPath id="id1">
     <path d="M279.23 27.06c24.55,15.1 45.26,35.82 60.36,60.36l0 191.81c-12.86,20.91 -29.8,39.04 -49.7,53.29l-213.13 0c-16.44,-11.77 -30.86,-26.19 -42.63,-42.63l0 -213.12c14.25,-19.91 32.38,-36.84 53.29,-49.7l191.8 0z"/>
    </clipPath>
    <clipPath id="id2">
     <path d="M183.33 0c101.25,0 183.33,82.08 183.33,183.33 0,101.25 -82.08,183.33 -183.33,183.33 -101.25,0 -183.33,-82.08 -183.33,-183.33 0,-101.25 82.08,-183.33 183.33,-183.33z"/>
    </clipPath>
 </defs>
 <g id="Layer_x0020_1">
  <metadata id="CorelCorpID_0Corel-Layer"/>
  <path class="fil0" d="M183.33 0c101.25,0 183.33,82.08 183.33,183.33 0,101.25 -82.08,183.33 -183.33,183.33 -101.25,0 -183.33,-82.08 -183.33,-183.33 0,-101.25 82.08,-183.33 183.33,-183.33z"/>
  <g style="clip-path:url(#id0)">
   <g id="_2319275521696">
   </g>
   <g style="clip-path:url(#id1)">
    <image id="supply-chain_x0020__x0028_1_x0029_.png" x="34.14" y="27.07" width="305.45" height="305.45" xlink:href="5_Images\5_ImgID1.jpg"/>
   </g>
   <g style="clip-path:url(#id2)">
   </g>
  </g>
  <path class="fil1" d="M183.33 0c101.25,0 183.33,82.08 183.33,183.33 0,101.25 -82.08,183.33 -183.33,183.33 -101.25,0 -183.33,-82.08 -183.33,-183.33 0,-101.25 82.08,-183.33 183.33,-183.33z"/>
 </g>
</svg>
