<?xml version="1.0" encoding="UTF-8"?>
<!DOCTYPE svg PUBLIC "-//W3C//DTD SVG 1.1//EN" "http://www.w3.org/Graphics/SVG/1.1/DTD/svg11.dtd">
<!-- Creator: CorelDRAW -->
<svg xmlns="http://www.w3.org/2000/svg" xml:space="preserve" width="36.3759mm" height="31.3616mm" version="1.1" style="shape-rendering:geometricPrecision; text-rendering:geometricPrecision; image-rendering:optimizeQuality; fill-rule:evenodd; clip-rule:evenodd"
viewBox="0 0 886.27 764.1"
 xmlns:xlink="http://www.w3.org/1999/xlink"
 xmlns:xodm="http://www.corel.com/coreldraw/odm/2003">
 <defs>
  <style type="text/css">
   <![CDATA[
    .fil0 {fill:#FEFEFE;fill-rule:nonzero}
   ]]>
  </style>
 </defs>
 <g id="Layer_x0020_1">
  <metadata id="CorelCorpID_0Corel-Layer"/>
  <g id="_2652794572928">
   <path class="fil0" d="M56.62 0l510.42 0c15.59,0 29.74,6.37 40,16.62 10.26,10.26 16.62,24.42 16.62,40l0 351.46c0,15.59 -6.37,29.74 -16.62,40 -10.25,10.25 -24.41,16.62 -40,16.62l-270.23 0 -135.81 143.33c-4.98,5.23 -13.25,5.44 -18.48,0.46 -2.74,-2.61 -4.1,-6.12 -4.06,-9.63l-4.02 -134.16 -77.81 0c-15.58,0 -29.74,-6.37 -40,-16.62 -10.25,-10.25 -16.62,-24.41 -16.62,-40l0 -351.46c0,-15.58 6.37,-29.74 16.62,-40 10.26,-10.25 24.42,-16.62 40,-16.62zm510.42 26.21l-510.42 0c-8.35,0 -15.95,3.43 -21.46,8.94 -5.52,5.52 -8.94,13.12 -8.94,21.46l0 351.46c0,8.35 3.43,15.95 8.94,21.46 5.52,5.52 13.12,8.94 21.46,8.94l90.48 0 0 0.05c7.05,-0 12.86,5.61 13.05,12.7l3.48 116 117.45 -123.95c2.4,-2.93 6.05,-4.79 10.13,-4.79l275.82 0c8.35,0 15.95,-3.42 21.47,-8.94 5.52,-5.52 8.94,-13.12 8.94,-21.46l0 -351.46c0,-8.35 -3.43,-15.95 -8.94,-21.46 -5.52,-5.52 -13.12,-8.94 -21.47,-8.94z"/>
   <path class="fil0" d="M144.4 134.59c-7.24,0 -13.11,-5.87 -13.11,-13.11 0,-7.24 5.87,-13.11 13.11,-13.11l334.85 0c7.24,0 13.11,5.87 13.11,13.11 0,7.24 -5.87,13.11 -13.11,13.11l-334.85 0z"/>
   <path class="fil0" d="M144.4 234.62c-7.24,0 -13.11,-5.87 -13.11,-13.11 0,-7.24 5.87,-13.11 13.11,-13.11l334.85 0c7.24,0 13.11,5.87 13.11,13.11 0,7.24 -5.87,13.11 -13.11,13.11l-334.85 0z"/>
   <path class="fil0" d="M144.4 337.44c-7.24,0 -13.11,-5.87 -13.11,-13.11 0,-7.24 5.87,-13.11 13.11,-13.11l334.85 0c7.24,0 13.11,5.87 13.11,13.11 0,7.24 -5.87,13.11 -13.11,13.11l-334.85 0z"/>
   <path class="fil0" d="M262.62 524.69c0,-7.24 5.87,-13.11 13.11,-13.11 7.24,0 13.11,5.87 13.11,13.11l0 35.4c0,8.35 3.43,15.95 8.94,21.46 5.52,5.52 13.12,8.94 21.46,8.94l275.82 0c4.08,0 7.73,1.87 10.13,4.79l117.45 123.95 3.47 -116c0.19,-7.09 6.01,-12.71 13.06,-12.7l0 -0.05 90.48 0c8.35,0 15.95,-3.43 21.46,-8.94 5.52,-5.52 8.94,-13.12 8.94,-21.46l0 -351.46c0,-8.35 -3.43,-15.95 -8.94,-21.46 -5.52,-5.52 -13.12,-8.94 -21.46,-8.94l-173.09 0c-7.24,0 -13.11,-5.87 -13.11,-13.11 0,-7.24 5.87,-13.11 13.11,-13.11l173.09 0c15.58,0 29.74,6.37 40,16.62 10.25,10.25 16.62,24.41 16.62,40l0 351.46c0,15.59 -6.37,29.74 -16.62,40 -10.25,10.25 -24.41,16.62 -40,16.62l-77.81 0 -4.02 134.16c0.04,3.51 -1.32,7.02 -4.06,9.63 -5.23,4.98 -13.51,4.77 -18.48,-0.46l-135.81 -143.33 -270.23 0c-15.58,0 -29.74,-6.37 -40,-16.62 -10.25,-10.25 -16.62,-24.42 -16.62,-40l0 -35.4z"/>
  </g>
 </g>
</svg>
